<svg xmlns="http://www.w3.org/2000/svg" viewBox="0 0 483.7 178.6"><defs><style>.a{fill:#010101;}.b{fill:#0a0d0d;}.c{fill:#060909;}.d{fill:#fcfdfd;}.e{fill:#f7f8f8;}.f{fill:#f2f3f3;}.g{fill:#fcfcfc;}.h{fill:#eff0f0;}</style></defs><path class="a" d="M478.4,29.4v1.7c-.9.9-.5,2-.5,3V145.8c0,1-.4,2.1.5,2.9V151c-.8.1-.7,1-.9,1.5-3.3,9.3-10.8,14.7-20.6,14.7H27.6c-12.2,0-21.3-9.1-21.3-21.2V34a25.7,25.7,0,0,1,.6-5.5c2.6-9.7,10.7-15.6,21.6-15.6H456.4c10.7,0,18.1,5.3,21.4,15.5C477.9,28.8,477.8,29.3,478.4,29.4ZM243,23.2H39.3c-5,0-5,0-5,4.9,0,39.8.1,79.5,0,119.3,0,2.7.5,3.7,3.5,3.6H145.9c2.7,0,3.3-.8,3.3-3.5V32.5c-.1-1.5.6-2,2-2a74.8,74.8,0,0,0,8.2,0c2.7-.2,3.4.8,3.4,3.5-.1,37.6,0,75.3,0,113,0,4,0,4,3.9,4H449c4.5,0,4.5,0,4.5-4.6V37.4a54.8,54.8,0,0,0-.5-9.9c-.6-3.8-1-4.3-5-4.3Z"/><path class="b" d="M478.4,148.7c-.9-.8-.5-1.9-.5-2.9V34.1c0-1-.4-2.1.5-3Z"/><path class="c" d="M243,23.2H448c4,0,4.4.5,5,4.3a54.8,54.8,0,0,1,.5,9.9v109c0,4.6,0,4.6-4.5,4.6H166.7c-3.9,0-3.9,0-3.9-4,0-37.7-.1-75.4,0-113,0-2.7-.7-3.7-3.4-3.5a74.8,74.8,0,0,1-8.2,0c-1.4,0-2.1.5-2,2v115c0,2.7-.6,3.5-3.3,3.5H37.8c-3,.1-3.5-.9-3.5-3.6.1-39.8,0-79.5,0-119.3,0-4.9,0-4.9,5-4.9ZM41.1,92.9c.1,16.3,7.6,34.9,18.8,46.6,5.1,5.3,10.8,7.5,17.8,4.2s16-3.7,24.3-.1,13.2,1.5,18.7-4.8a70,70,0,0,0,13-21.6c.8-1.9.3-2.6-1.4-3.6a24.9,24.9,0,0,1-2.8-42.3c1.8-1.3,1.8-2,.5-3.6-5.9-7.3-18.5-12-31-7.5s-8.2,4.6-21.1.1C68.5,57,60,58.9,52.6,65.1S41.2,82.1,41.1,92.9Zm212.2,10c0-1.7-.1-2.5,0-3.3.3-2.7-1.8-1.7-3-1.9s-2.1.5-2,2.1c.6,12.4.2,24.8.2,37.2,0,2.2.6,2.7,2.7,2.7s2.9-.3,2.8-2.6c-.3-4.3-.1-8.7-.1-13.4,5,4.5,10.4,5.4,15.3,2.9s8.2-9.1,7.4-16.5c-.6-5.7-2.8-10.5-8.7-12.3S257.6,97.4,253.3,102.9Zm-34.8-.4c-.1-1.5-.1-2.5-.2-3.5s-2.2-.9-3.4-1.2-1.5.3-1.5,1.5c.1,12.6.3,25.2.2,37.8-.1,2.4.9,2.5,2.7,2.6s2.8-.6,2.7-2.7c-.2-4.3-.1-8.6-.1-13.2,8,7.8,19.8,3.8,22.3-6.2a21.9,21.9,0,0,0-.4-11.9,12.2,12.2,0,0,0-14.2-8.4C223.3,97.8,221,99.7,218.5,102.5Zm-13.6,24.7c3.4,1,2.7-.8,2-2.9-4-11.4-7.8-22.7-11.8-34.1-1.5-4.4-1.5-4.3-6.1-4.2-1.2,0-1.9.2-2.3,1.4l-12.9,38.2c-.2.5-.6,1-.1,1.5s5.1-.1,5.5-1.3c1.1-3.2,2.3-6.4,3.2-9.6.4-1.4,1-2,2.5-1.9q5.4.2,10.8,0c1.7-.1,2.3.6,2.7,2,.9,2.9,2,5.7,2.8,8.6S202.7,127.8,204.9,127.2Zm100.3.8,3.1-.2c3.5-.5,6.7-1.7,9.1-4.6a11.4,11.4,0,0,0-2.5-16.4c-3.1-2.2-6.8-3-10.1-4.9s-4.4-4.3-3.6-7.2,3.1-4.6,6.5-4.8a16,16,0,0,1,7.2,1.1c1,.4,2,1.1,2.3-.7s2-2.8-.6-3.6c-4.9-1.7-9.9-2.1-14.8.2s-7.1,6.9-6,11.9,3.8,6.3,7.2,8.1,5.5,2,8,3.6,3.8,4.2,3.2,7.3-2.8,5-6.1,5.5a18.9,18.9,0,0,1-10.2-1.4c-.7-.3-1.9-1.9-2.2.3s-2.1,2.9.4,3.9A21.8,21.8,0,0,0,305.2,128Zm53.5-.1c8.9.1,15-6.1,15-15.4S368,97.1,359.4,97.1s-14.9,6.3-14.9,15.6S350.3,127.9,358.7,127.9Zm54.7-14.3h8.7c.8,0,1.6.1,1.9-1.1,1.7-6.4-3.9-14.7-10.4-15.3-9.8-1-16.9,6.8-15.9,17.2.6,5.7,2.9,10.4,8.6,12.5s9.8,1.2,14.7-.2c2-.6.8-1.9.8-3s-1.1-1.2-2.1-.9a18.9,18.9,0,0,1-7.5,1c-4.8-.3-8.3-3.4-9-7.8-.3-1.7-.2-2.6,2-2.5S410.6,113.6,413.4,113.6ZM110.7,34c.1-3.4-.1-3.5-3.4-2.8A26.1,26.1,0,0,0,87.8,51.6c-1,5.5.1,6.6,5.7,5.2C102.7,54.4,110.5,44,110.7,34ZM328,111.6h0c0,2.8-.1,5.6.1,8.4.4,6.3,5.3,9.6,11.3,7.7,1.9-.6,1.1-1.9,1.1-3s-.6-1.4-1.7-1.3c-4.2.2-5.3-.9-5.5-5.2s0-7.1,0-10.7c0-5.6,0-5.6,5.6-5.7h.6c1.3.2,1.5-.5,1.6-1.6s-.4-2.8-2.5-2.5-2.2-.1-3.3,0-2.1-.3-2-1.9,0-3.3,0-5,.3-1.4-.8-1.5a3.9,3.9,0,0,0-4.5,4.1,17.6,17.6,0,0,0,0,2.3c.2,1.6-.5,2.2-2.1,2s-2.6-.4-2.6,2,1.4,2.2,2.8,2.1,2,.4,1.9,1.9S328,108.9,328,111.6ZM168.6,58.8c0,3.7-.1,7.4,0,11,0,1-.2,2,1.2,2,4.3.1,8.5.6,12.6-1.1s7.9-7.1,7.5-13.8-3.6-9.4-9.2-10.7c-3.5-.8-7.1-.4-10.6-.2-1.5,0-1.6,1-1.6,2.1C168.6,51.7,168.6,55.3,168.6,58.8Zm151.2-3.9c-5.4-2.9-9.2-2.5-12,1s-2.7,10.5.4,13.9a7.9,7.9,0,0,0,4.7,2.4c2.8.4,5-1,7.1-2.9.1,1.5.1,2.7,2,2.6s1.4-.6,1.4-1.6c-.1-8-.1-16-.1-23.9,0-1.4-.4-1.8-1.8-1.9s-1.7.5-1.7,1.8C319.9,49.1,319.8,51.9,319.8,54.9ZM218.5,68c-1.2-4.8-2.5-9.2-3.5-13.6-.5-1.9-1.9-1.3-2.9-1.1s-.5,1.3-.3,2c1.4,4.8,2.9,9.7,4.4,14.5.3,1.1.5,2.1,2.1,2.1s1.9-.8,2.2-2l4.1-12.1,4.1,12.7c.3.9.7,1.4,1.7,1.3s1.8.1,2.2-1.2c1.8-5.7,3.7-11.4,5.5-17.1-3.2-.5-3.3-.5-4,2.3s-2.1,7.5-3.4,12.1c-1.5-4.9-2.8-8.9-4-13-.3-1-.7-1.8-2-1.7s-1.7.8-2,1.8C221.4,59.2,220,63.4,218.5,68ZM385,102.8c0-1.3.1-2.5,0-3.7s-2.1-1-3.2-1.3-1.6.1-1.6,1.5c.2,8.4.3,16.9.2,25.4,0,1.9.2,2.8,2.5,2.7s3-.2,2.9-2.7c0-5.3-.6-10.7.4-16s3.3-6.4,7-6.4,1.7-2.2,2-3.5-1.2-1.7-2.4-1.6C389.2,97.4,387.1,99.9,385,102.8Zm16.6-47.1c0-3.5-.1-6.4,0-9.3,0-1.3-.2-1.9-1.7-1.8s-1.8.3-1.8,1.7q.1,11.9,0,23.7c0,1.2.3,1.8,1.7,1.9s1.8-.7,1.8-2.1q-.2-4.5,0-9c.1-3,2.1-5.2,4.8-5.1s4.1,1.7,4.2,5,.1,6.4,0,9.6c0,1.2.5,1.6,1.7,1.5s1.8,0,1.8-1.4c-.1-3.8.1-7.7-.2-11.6s-6-7.7-10.5-4.5Zm-47.7,6.8c0-5.7-3.6-9.6-8.9-9.7s-9.4,3.9-9.4,9.8,3.6,9.6,8.8,9.7S353.8,68.2,353.9,62.5Zm73.2.6h5.1c1.2.1,1.5-.4,1.6-1.6.1-3.5-1.8-7-4.6-8.1a8.7,8.7,0,0,0-9.4,2.1c-3,3.4-3.4,9.8-.6,13.4s8.4,4.4,12.4,2.6c.9-.4,1.1-.9.8-1.7s-.6-1.1-1.4-.8l-2.2.5c-4,.5-6.6-.8-7.7-3.7s-.6-2.9,1.7-2.7S425.7,63.1,427.1,63.1Zm-235-.4c.1,5.6,3.8,9.6,9,9.6s9.3-4.1,9.2-10-3.6-9.5-8.9-9.5S192.1,56.8,192.1,62.7Zm94-.2c0-5.7-3.5-9.6-8.8-9.7s-9.4,3.8-9.4,9.7,3.5,9.6,8.7,9.8S286.1,68.3,286.1,62.5Zm16.6,2.4h-.1V60.4c0-2.8-.6-5.4-3.3-6.7s-6-1-9,.3c-.7.3-.9.7-.6,1.5s.8,1.1,1.7.6a5.5,5.5,0,0,1,1.8-.6c1.5-.1,3-.4,4.4.5a3.1,3.1,0,0,1,1.5,3.2c-.2,1.4-1.5.6-2.3.7-2.4.4-4.7.8-6.6,2.3a5.9,5.9,0,0,0-1.7,6.9c1.1,2.4,3.2,3.3,5.8,3.1a7.3,7.3,0,0,0,3.9-1.5c.6-.5,1.2-1.4,1.5.4s1.6.7,2.4.6.6-.9.6-1.5ZM360.2,56c.1-1.8.1-3.1-2-2.8s-.9,1.7-1,2.6V69.9c0,1-.1,2,1.5,2s2-.4,2-2-.1-5.8,0-8.7,1.9-5.5,4.7-5.5,4.2,1.8,4.3,5.4,0,5.5,0,8.2-.5,2.6,1.8,2.6,1.6-1.6,1.6-2.7c.1-2.7.1-5.3.1-7.9s-.6-6.4-3.9-7.8S363,53,360.2,56Zm-116.3-.1c-.4-1.3.2-2.8-1.9-2.7s-1.3,1.7-1.3,2.6V69.9c0,1.1-.1,2,1.6,2s1.9-.5,1.9-2-.1-5.8-.1-8.7,2-5.5,4.8-5.5,4.2,1.8,4.3,5.4,0,5.5,0,8.2-.5,2.6,1.8,2.6,1.6-1.4,1.6-2.5c.1-2.7,0-5.4,0-8.2s-.5-6.3-3.9-7.8S246.5,53,243.9,55.9Zm146.7-7.7c-2.3-.1-3.7.6-3.2,3.2s-.1,2-1.6,1.8-1.3.4-1.3,1.3.2,1.5,1.2,1.4,1.7.9,1.7,2.1c0,3.1-.1,6.2,0,9.3s3.1,5.7,6.7,4.8c1-.3,1.3-.7,1.2-1.7s-.7-1-1.5-1-3-1.1-3-3.1.1-4.3-.1-6.5-.1-4.7,3.5-3.9c1.1.2,1.4-.5,1.4-1.5s-.7-1.3-1.5-1.2c-3.2.6-3.8-1-3.4-3.7A5.7,5.7,0,0,0,390.6,48.2Zm-126.2,10V46.7c0-1.2.1-2.2-1.7-2.2s-1.7.8-1.7,2.1V69.7c0,1.2-.2,2.2,1.7,2.2s1.8-.8,1.7-2.1Z"/><path class="d" d="M41.1,92.9c.1-10.8,2.9-20.6,11.5-27.8S68.5,57,77.9,60.3c12.9,4.5,8.2,4.6,21.1-.1s25.1.2,31,7.5c1.3,1.6,1.3,2.3-.5,3.6a24.9,24.9,0,0,0,2.8,42.3c1.7,1,2.2,1.7,1.4,3.6a70,70,0,0,1-13,21.6c-5.5,6.3-11,8-18.7,4.8s-16.2-3.7-24.3.1-12.7,1.1-17.8-4.2C48.7,127.8,41.2,109.2,41.1,92.9Z"/><path class="e" d="M253.3,102.9c4.3-5.5,9.1-6.9,14.6-5.1s8.1,6.6,8.7,12.3c.8,7.4-2.1,13.8-7.4,16.5s-10.3,1.6-15.3-2.9c0,4.7-.2,9.1.1,13.4.1,2.3-.8,2.5-2.8,2.6s-2.7-.5-2.7-2.7c0-12.4.4-24.8-.2-37.2-.1-1.6.3-2.4,2-2.1s3.3-.8,3,1.9C253.2,100.4,253.3,101.2,253.3,102.9Zm.6,9.7v3a8.4,8.4,0,0,0,7,8,8.2,8.2,0,0,0,9.2-5c1.8-4.4,1.9-8.8-.5-13a8.1,8.1,0,0,0-13.9-.6A11.5,11.5,0,0,0,253.9,112.6Z"/><path class="e" d="M218.5,102.5c2.5-2.8,4.8-4.7,8.1-5.2a12.2,12.2,0,0,1,14.2,8.4,21.9,21.9,0,0,1,.4,11.9c-2.5,10-14.3,14-22.3,6.2,0,4.6-.1,8.9.1,13.2.1,2.1-.5,2.8-2.7,2.7s-2.8-.2-2.7-2.6c.1-12.6-.1-25.2-.2-37.8,0-1.2.4-1.9,1.5-1.5s3.1-1.3,3.4,1.2S218.4,101,218.5,102.5Zm17.9,9c-.1-.4-.2-1.6-.5-2.8-1.2-4.7-4.5-7.6-8.6-7.4s-7.8,3.7-8.3,8.6a25.5,25.5,0,0,0,.2,7.3,8.3,8.3,0,0,0,10.1,6.3C233.9,122.4,236.4,118.5,236.4,111.5Z"/><path class="e" d="M204.9,127.2c-2.2.6-3.1-.3-3.7-2.3s-1.9-5.7-2.8-8.6c-.4-1.4-1-2.1-2.7-2q-5.4.2-10.8,0c-1.5-.1-2.1.5-2.5,1.9-.9,3.2-2.1,6.4-3.2,9.6-.4,1.2-4.7,2.3-5.5,1.3s-.1-1,.1-1.5l12.9-38.2c.4-1.2,1.1-1.4,2.3-1.4,4.6-.1,4.6-.2,6.1,4.2,4,11.4,7.8,22.7,11.8,34.1C207.6,126.4,208.3,128.2,204.9,127.2ZM190.2,91.1c-1.6,6.7-4.1,12.7-6,19.1h10.6c1.3.1,1.7-.4,1.3-1.6Z"/><path class="f" d="M305.2,128a21.8,21.8,0,0,1-9.1-1.9c-2.5-1-.6-2.6-.4-3.9s1.5-.6,2.2-.3a18.9,18.9,0,0,0,10.2,1.4c3.3-.5,5.6-2.6,6.1-5.5s-.7-5.5-3.2-7.3-5.4-2.3-8-3.6-6.4-4-7.2-8.1,1.3-9.6,6-11.9,9.9-1.9,14.8-.2c2.6.8.7,2.4.6,3.6s-1.3,1.1-2.3.7a16,16,0,0,0-7.2-1.1c-3.4.2-5.8,2-6.5,4.8s.5,5.3,3.6,7.2,7,2.7,10.1,4.9a11.4,11.4,0,0,1,2.5,16.4c-2.4,2.9-5.6,4.1-9.1,4.6Z"/><path class="e" d="M358.7,127.9c-8.4,0-14.3-6.3-14.2-15.2s6.1-15.6,14.9-15.6,14.4,6.2,14.3,15.4S367.6,128,358.7,127.9Zm9.5-15.4a14.7,14.7,0,0,0-2.2-7.7,8.2,8.2,0,0,0-13.3-.6c-3.6,4.3-3.6,12.2,0,16.5a8,8,0,0,0,12.7.2A13.3,13.3,0,0,0,368.2,112.5Z"/><path class="f" d="M413.4,113.6c-2.8,0-5.5.1-8.2-.1s-2.3.8-2,2.5c.7,4.4,4.2,7.5,9,7.8a18.9,18.9,0,0,0,7.5-1c1-.3,2-.5,2.1.9s1.2,2.4-.8,3c-4.9,1.4-9.8,2-14.7.2s-8-6.8-8.6-12.5c-1-10.4,6.1-18.2,15.9-17.2,6.5.6,12.1,8.9,10.4,15.3-.3,1.2-1.1,1.1-1.9,1.1Zm-2.8-3.9c2.1,0,4.3-.1,6.5,0s1.7-.4,1.6-1.8c-.5-4.3-3.3-7-7.5-6.9a8.5,8.5,0,0,0-8,7.4c-.1,1,.1,1.3,1.2,1.3S408.5,109.7,410.6,109.7Z"/><path class="g" d="M110.7,34c-.2,10-8,20.4-17.2,22.8-5.6,1.4-6.7.3-5.7-5.2a26.1,26.1,0,0,1,19.5-20.4C110.6,30.5,110.8,30.6,110.7,34Z"/><path class="e" d="M328,111.6c0-2.7-.1-5.3,0-7.9s-.4-2.1-1.9-1.9-2.8.4-2.8-2.1,1.3-2.1,2.6-2,2.3-.4,2.1-2a17.6,17.6,0,0,1,0-2.3,3.9,3.9,0,0,1,4.5-4.1c1.1.1.8.9.8,1.5s.1,3.4,0,5,.5,2,2,1.9,2.2.1,3.3,0,2.6.6,2.5,2.5-.3,1.8-1.6,1.6h-.6c-5.6.1-5.6.1-5.6,5.7,0,3.6-.1,7.2,0,10.7s1.3,5.4,5.5,5.2c1.1-.1,1.8,0,1.7,1.3s.8,2.4-1.1,3c-6,1.9-10.9-1.4-11.3-7.7-.2-2.8-.1-5.6-.1-8.4Z"/><path class="h" d="M168.6,58.8c0-3.5,0-7.1-.1-10.7,0-1.1.1-2.1,1.6-2.1,3.5-.2,7.1-.6,10.6.2,5.6,1.3,8.8,5.1,9.2,10.7s-2.3,11.7-7.5,13.8-8.3,1.2-12.6,1.1c-1.4,0-1.2-1-1.2-2C168.5,66.2,168.6,62.5,168.6,58.8Zm6,10.5c6,0,9.5-2.1,11-6.3,3.2-8.9-2.2-15.6-11.6-14.6-1.6.2-2.2.7-2.1,2.4.1,5.1.1,10.1-.1,15.2C171.7,68.5,172.3,69.8,174.6,69.3Z"/><path class="h" d="M319.8,54.9c0-3,.1-5.8,0-8.6,0-1.3.3-1.8,1.7-1.8s1.8.5,1.8,1.9c0,7.9,0,15.9.1,23.9,0,1-.2,1.5-1.4,1.6s-1.9-1.1-2-2.6c-2.1,1.9-4.3,3.3-7.1,2.9a7.9,7.9,0,0,1-4.7-2.4c-3.1-3.4-3.3-10.1-.4-13.9S314.4,52,319.8,54.9Zm.2,7.8c-.2-1.2-.2-2.2-.4-3.2a4.6,4.6,0,0,0-3.9-3.9,4.8,4.8,0,0,0-5,1.9c-1.9,2.5-2,7.4-.2,9.9a5.1,5.1,0,0,0,9-1.5C319.8,64.8,319.8,63.7,320,62.7Z"/><path class="h" d="M218.5,68c1.5-4.6,2.9-8.8,4.2-13,.3-1,.5-1.8,2-1.8s1.7.7,2,1.7c1.2,4.1,2.5,8.1,4,13,1.3-4.6,2.3-8.4,3.4-12.1s.8-2.8,4-2.3c-1.8,5.7-3.7,11.4-5.5,17.1-.4,1.3-1.2,1.2-2.2,1.2s-1.4-.4-1.7-1.3l-4.1-12.7-4.1,12.1c-.3,1.2-.7,1.9-2.2,2s-1.8-1-2.1-2.1c-1.5-4.8-3-9.7-4.4-14.5-.2-.7-1.2-1.8.3-2s2.4-.8,2.9,1.1C216,58.8,217.3,63.2,218.5,68Z"/><path class="e" d="M385,102.8c2.1-2.9,4.2-5.4,7.8-5.6,1.2-.1,2.8-.4,2.4,1.6s1.3,3.5-2,3.5-6.3,2.4-7,6.4-.4,10.7-.4,16c.1,2.5-.9,2.6-2.9,2.7s-2.5-.8-2.5-2.7c.1-8.5,0-17-.2-25.4,0-1.4.5-1.8,1.6-1.5s3.1-1.2,3.2,1.3S385,101.5,385,102.8Z"/><path class="f" d="M401.6,55.7l1.8-1.4c4.5-3.2,10-.9,10.5,4.5s.1,7.8.2,11.6c0,1.4-.8,1.4-1.8,1.4s-1.7-.3-1.7-1.5q.1-4.8,0-9.6c-.1-3.3-1.6-5-4.2-5s-4.7,2.1-4.8,5.1-.1,6,0,9c0,1.4-.1,2.1-1.8,2.1s-1.7-.7-1.7-1.9q.1-11.8,0-23.7c0-1.4.5-1.7,1.8-1.7s1.7.5,1.7,1.8C401.5,49.3,401.6,52.2,401.6,55.7Z"/><path class="h" d="M353.9,62.5c-.1,5.7-4.1,9.8-9.5,9.8s-8.9-4.2-8.8-9.7,3.9-9.9,9.4-9.8S353.9,56.8,353.9,62.5Zm-14.8-.1c0,2.7.6,5.1,3.1,6.5a4.8,4.8,0,0,0,6.5-1.3c2.2-2.8,2.1-8-.2-10.5a5.1,5.1,0,0,0-6.7-.8C339.7,57.7,339.1,60,339.1,62.4Z"/><path class="h" d="M427.1,63.1c-1.4,0-2.9.1-4.3,0s-2.4.9-1.7,2.7,3.7,4.2,7.7,3.7L431,69c.8-.3,1.2,0,1.4.8s.1,1.3-.8,1.7c-4,1.8-10,.6-12.4-2.6s-2.4-10,.6-13.4a8.7,8.7,0,0,1,9.4-2.1c2.8,1.1,4.7,4.6,4.6,8.1-.1,1.2-.4,1.7-1.6,1.6Zm-1.5-2.5a8.6,8.6,0,0,0,1.6,0c1.1-.3,2.8.9,3.1-.8a3.7,3.7,0,0,0-2.1-3.9,4.6,4.6,0,0,0-5.7.8c-1,.9-1.9,2.2-1.6,3.4s2,.3,3,.5A9.6,9.6,0,0,0,425.6,60.6Z"/><path class="h" d="M192.1,62.7c0-5.9,3.7-9.9,9.3-9.9s8.9,3.8,8.9,9.5-3.7,9.9-9.2,10S192.2,68.3,192.1,62.7Zm14.8,0c-.1-2.6-.7-4.9-2.9-6.5a5.1,5.1,0,0,0-6.6.9c-2.4,2.6-2.5,7.7-.2,10.5a4.8,4.8,0,0,0,6.5,1.3C206,67.5,206.8,65.2,206.9,62.7Z"/><path class="h" d="M286.1,62.5c0,5.8-4,9.9-9.5,9.8s-8.8-4.1-8.7-9.8,3.9-9.8,9.4-9.7S286.1,56.8,286.1,62.5Zm-14.8-.1c0,3.2,1.2,5.6,3.4,6.7a5.2,5.2,0,0,0,6.5-1.7c2-2.8,1.8-7.8-.4-10.3a5.1,5.1,0,0,0-6.7-.8C272,57.7,271.4,59.9,271.3,62.4Z"/><path class="h" d="M302.7,64.9v5.3c0,.6.5,1.5-.6,1.5s-2.1.7-2.4-.6-.9-.9-1.5-.4a7.3,7.3,0,0,1-3.9,1.5c-2.6.2-4.7-.7-5.8-3.1a5.9,5.9,0,0,1,1.7-6.9c1.9-1.5,4.2-1.9,6.6-2.3.8-.1,2.1.7,2.3-.7a3.1,3.1,0,0,0-1.5-3.2c-1.4-.9-2.9-.6-4.4-.5a5.5,5.5,0,0,0-1.8.6c-.9.5-1.4.4-1.7-.6s-.1-1.2.6-1.5c3-1.3,6-1.8,9-.3s3.3,3.9,3.3,6.7v4.5Zm-3.4-.4c-.4-.6.8-2.2-1.1-2.2a7.7,7.7,0,0,0-5.5,1.5,3.3,3.3,0,0,0-.9,4.1c.6,1.5,1.8,1.8,3.2,1.7S299.2,67.7,299.3,64.5Z"/><path class="h" d="M360.2,56c2.8-3,5.8-4,9.1-2.5s3.8,4.5,3.9,7.8,0,5.2-.1,7.9c0,1.1.7,2.6-1.6,2.7s-1.7-1.4-1.8-2.6.1-5.5,0-8.2-1.6-5.5-4.3-5.4-4.7,2.1-4.7,5.5-.1,5.8,0,8.7-.5,1.9-2,2-1.5-1-1.5-2V55.8c.1-.9-1-2.3,1-2.6S360.3,54.2,360.2,56Z"/><path class="f" d="M243.9,55.9c2.6-2.9,5.5-3.9,8.8-2.5s3.9,4.6,3.9,7.8.1,5.5,0,8.2c0,1.1.5,2.4-1.6,2.5s-1.8-1.4-1.8-2.6.1-5.5,0-8.2-1.6-5.5-4.3-5.4-4.7,2.1-4.8,5.5,0,5.8.1,8.7-.5,1.9-1.9,2-1.6-.9-1.6-2V55.8c0-.9-1-2.5,1.3-2.6S243.5,54.6,243.9,55.9Z"/><path class="h" d="M390.6,48.2a5.7,5.7,0,0,1,.1,1.3c-.4,2.7.2,4.3,3.4,3.7.8-.1,1.5.1,1.5,1.2s-.3,1.7-1.4,1.5c-3.6-.8-3.7,1.3-3.5,3.9s0,4.3.1,6.5.8,3.3,3,3.1,1.5-.2,1.5,1-.2,1.4-1.2,1.7c-3.6.9-6.4-1-6.7-4.8s0-6.2,0-9.3c0-1.2.2-2.4-1.7-2.1s-1.2-.5-1.2-1.4.3-1.4,1.3-1.3,1.8-.6,1.6-1.8S388.3,48.1,390.6,48.2Z"/><path class="h" d="M264.4,58.2V69.8c.1,1.3-.1,2.1-1.7,2.1s-1.7-1-1.7-2.2V46.6c0-1.3.1-2.1,1.7-2.1s1.7,1,1.7,2.2Z"/><path class="b" d="M253.9,112.6a11.5,11.5,0,0,1,1.8-7.6,8.1,8.1,0,0,1,13.9.6c2.4,4.2,2.3,8.6.5,13a8.2,8.2,0,0,1-9.2,5,8.4,8.4,0,0,1-7-8Z"/><path class="b" d="M236.4,111.5c0,7-2.5,10.9-7.1,12a8.3,8.3,0,0,1-10.1-6.3,25.5,25.5,0,0,1-.2-7.3c.5-4.9,3.9-8.3,8.3-8.6s7.4,2.7,8.6,7.4C236.2,109.9,236.3,111.1,236.4,111.5Z"/><path class="b" d="M190.2,91.1l5.9,17.5c.4,1.2,0,1.7-1.3,1.6H184.2C186.1,103.8,188.6,97.8,190.2,91.1Z"/><path class="b" d="M368.2,112.5a13.3,13.3,0,0,1-2.8,8.4,8,8,0,0,1-12.7-.2c-3.6-4.3-3.6-12.2,0-16.5a8.2,8.2,0,0,1,13.3.6A14.7,14.7,0,0,1,368.2,112.5Z"/><path class="b" d="M410.6,109.7c-2.1,0-4.2-.1-6.2,0s-1.3-.3-1.2-1.3a8.5,8.5,0,0,1,8-7.4c4.2-.1,7,2.6,7.5,6.9.1,1.4-.2,1.9-1.6,1.8S412.7,109.7,410.6,109.7Z"/><path class="b" d="M174.6,69.3c-2.3.5-2.9-.8-2.8-3.3.2-5.1.2-10.1.1-15.2-.1-1.7.5-2.2,2.1-2.4,9.4-1,14.8,5.7,11.6,14.6C184.1,67.2,180.6,69.3,174.6,69.3Z"/><path class="b" d="M320,62.7c-.2,1-.2,2.1-.5,3.2a5.1,5.1,0,0,1-9,1.5c-1.8-2.5-1.7-7.4.2-9.9a4.8,4.8,0,0,1,5-1.9,4.6,4.6,0,0,1,3.9,3.9C319.8,60.5,319.8,61.5,320,62.7Z"/><path class="b" d="M339.1,62.4c0-2.4.6-4.7,2.7-6.1a5.1,5.1,0,0,1,6.7.8c2.3,2.5,2.4,7.7.2,10.5a4.8,4.8,0,0,1-6.5,1.3C339.7,67.5,339.1,65.1,339.1,62.4Z"/><path class="b" d="M425.6,60.6a9.6,9.6,0,0,1-1.7,0c-1-.2-2.6.6-3-.5s.6-2.5,1.6-3.4a4.6,4.6,0,0,1,5.7-.8,3.7,3.7,0,0,1,2.1,3.9c-.3,1.7-2,.5-3.1.8A8.6,8.6,0,0,1,425.6,60.6Z"/><path class="b" d="M206.9,62.7c-.1,2.5-.9,4.8-3.2,6.2a4.8,4.8,0,0,1-6.5-1.3c-2.3-2.8-2.2-7.9.2-10.5a5.1,5.1,0,0,1,6.6-.9C206.2,57.8,206.8,60.1,206.9,62.7Z"/><path class="b" d="M271.3,62.4c.1-2.5.7-4.7,2.8-6.1a5.1,5.1,0,0,1,6.7.8c2.2,2.5,2.4,7.5.4,10.3a5.2,5.2,0,0,1-6.5,1.7C272.5,68,271.3,65.6,271.3,62.4Z"/><path class="b" d="M299.3,64.5c-.1,3.2-1.6,5-4.3,5.1s-2.6-.2-3.2-1.7a3.3,3.3,0,0,1,.9-4.1,7.7,7.7,0,0,1,5.5-1.5C300.1,62.3,298.9,63.9,299.3,64.5Z"/></svg>