<svg xmlns="http://www.w3.org/2000/svg" viewBox="0 0 400 400"><defs><style>.a{fill:#fff;}</style></defs><path class="a" d="M359.7,39.9C325,5.1,298.9,10.3,298.9,10.3L177.3,132,38.3,270.9,14,385.6l114.7-24.3L389.3,100.7S394.5,74.6,359.7,39.9ZM121.8,347.5l-39.1,8.4a86.6,86.6,0,0,0-16.6-22.4,91.5,91.5,0,0,0-22.4-16.7l8.4-39.1,11.3-11.2s21.3.4,45.3,24.4,24.4,45.3,24.4,45.3Z"/><path class="a" d="M90.5,186l16.4-16.4L32.4,95,99,28.4l15.4,15.4L93.6,64.5a11.8,11.8,0,0,0,0,16.5A11.6,11.6,0,0,0,110,81l20.8-20.8,28.4,28.4-20.8,20.7a11.8,11.8,0,0,0,0,16.5,11.6,11.6,0,0,0,9.1,3.2l42.4-42.5-76-76C105.7,2.3,91.6,2.9,82.5,12L15.9,78.6c-9,9-9.7,23.1-1.4,31.4Z"/><path class="a" d="M389.1,285.7l-76-76-43.5,43.5a12.2,12.2,0,0,0,3.2,7,11.6,11.6,0,0,0,16.4,0L310,239.4l28.4,28.4-20.8,20.8A11.6,11.6,0,0,0,334,305l20.8-20.8,16.4,16.5h0l-66.6,66.6-74.5-74.5-16.4,16.4,76,76c8.2,8.2,22.3,7.6,31.3-1.5l66.7-66.6C396.7,308,397.4,294,389.1,285.7Z"/></svg>