<svg xmlns="http://www.w3.org/2000/svg" viewBox="0 0 400 400"><defs><style>.a{fill:#6d44bc;}.b{fill:#eab611;}</style></defs><circle class="a" cx="201.8" cy="200.7" r="194.7"/><circle class="b" cx="201.8" cy="200.7" r="176.5"/><path d="M112,202c.1.1.1.3.2.4,7.5,18.8,22.6,36.7,44.4,52.3a209.1,209.1,0,0,0,36.2,20.7v45.5l-18.3-18.3a2.9,2.9,0,1,0-4.2,4h.1l23.2,23.2a2.7,2.7,0,0,0,2.1.9,2.5,2.5,0,0,0,2-.9l23.2-23.2a2.8,2.8,0,0,0,.1-4h-.1a3,3,0,0,0-4.1,0l-18.2,18.3V275.4a208.3,208.3,0,0,0,36.1-20.7c21.8-15.6,37-33.5,44.5-52.3V202a79.7,79.7,0,0,0,3.4-10.8c4.9-21.2-1.3-38.5-11.7-50.1l33.6-33.6v26.2a2.9,2.9,0,0,0,5.8,0V100.9a2.9,2.9,0,0,0-2.9-2.9H274.7a2.9,2.9,0,1,0,0,5.8H300l-33.1,33.1a48.7,48.7,0,0,0-14-8.8c-21.1-8.7-43.1-1.7-57.2,17.9-14.2-19.6-36.2-26.6-57.2-17.9s-37.3,31.3-29.9,63.1A79.7,79.7,0,0,0,112,202Zm5.7-46.7h156a53.6,53.6,0,0,1,4.6,18.5H113A51.5,51.5,0,0,1,117.7,155.3Zm160.7,24.4a59.6,59.6,0,0,1-1.4,10.2,60.5,60.5,0,0,1-2.4,8.3H116.8a79.3,79.3,0,0,1-2.5-8.3,50,50,0,0,1-1.3-10.2Zm-17.7,42.8H130.6A90.3,90.3,0,0,1,119.2,204h153a95.4,95.4,0,0,1-11.5,18.5Zm-65,47.8A200,200,0,0,1,164,252.7h63.3a203.6,203.6,0,0,1-31.6,17.6Zm39.7-23.4H155.9a143.9,143.9,0,0,1-20.4-18.6H255.8a143.9,143.9,0,0,1-20.4,18.6Zm15.2-113.4a42.6,42.6,0,0,1,19.8,16h-70c10-13.7,28.2-25.2,50.2-16Zm-109.9,0a40.5,40.5,0,0,1,15.7-3.3c14.9,0,27.1,9,34.6,19.3H121a42.9,42.9,0,0,1,19.7-16Z"/></svg>