<svg xmlns="http://www.w3.org/2000/svg" viewBox="0 0 512 182.9"><path d="M23.6,38.5a10.8,10.8,0,0,1-4.2-5.9,41.3,41.3,0,0,1-1.1-10.4,39.7,39.7,0,0,1,1.2-11.1c.9-2.7,2.2-4.6,4.1-5.7a15.7,15.7,0,0,1,8.1-1.8A47.6,47.6,0,0,1,42.3,5l-.2,5.8a61.1,61.1,0,0,0-8.4-.8,9.6,9.6,0,0,0-5,1,5.6,5.6,0,0,0-2.3,3.5,27.9,27.9,0,0,0-.7,6.7v1.9a33.7,33.7,0,0,0,.7,6.8,5.3,5.3,0,0,0,2.2,3.2,10,10,0,0,0,4.9,1,59.7,59.7,0,0,0,8.6-.8l.2,6a49.9,49.9,0,0,1-10,1.2C28.5,40.5,25.6,39.8,23.6,38.5Z"/><path d="M66.3,33.4H53.8l-1.4,6.4H45.2l8-35.6H66.9l8,35.6H67.7Zm-5-23.2H58.8L55.2,27.1h9.7Z"/><path d="M79.7,4.2h7.2V39.8H79.7Z"/><path d="M94.6,4.2h13.8C116.8,4.2,121,8.1,121,16c0,4.6-1.7,8-5.2,10.2l5,13.6h-7.9l-4.1-11.9h-7V39.8H94.6Zm13.9,17.5a4.8,4.8,0,0,0,3.8-1.5,6.2,6.2,0,0,0,1.3-4.2,5.9,5.9,0,0,0-1.3-4.1,5,5,0,0,0-3.9-1.5h-6.6V21.7Z"/><path d="M131.6,38.5a11.3,11.3,0,0,1-4.7-5.9,33.1,33.1,0,0,1-1.4-10.4,33.7,33.7,0,0,1,1.4-10.5,12.2,12.2,0,0,1,4.7-6.1,17,17,0,0,1,8.7-2,16.6,16.6,0,0,1,8.6,2,11.7,11.7,0,0,1,4.7,6.1A33.7,33.7,0,0,1,155,22.2a30.1,30.1,0,0,1-1.4,10.3,10.6,10.6,0,0,1-4.6,5.9,16,16,0,0,1-8.7,2.1A17,17,0,0,1,131.6,38.5ZM144.7,33a6,6,0,0,0,2.2-3.8,26,26,0,0,0,.7-7,27.3,27.3,0,0,0-.7-7.1,6.2,6.2,0,0,0-6.6-5.2,6.6,6.6,0,0,0-4.4,1.3,6.8,6.8,0,0,0-2.3,3.9,32.5,32.5,0,0,0-.7,7.1,30.7,30.7,0,0,0,.6,6.7,6.8,6.8,0,0,0,2.2,3.9,7,7,0,0,0,4.6,1.4A7.2,7.2,0,0,0,144.7,33Z"/><path d="M179.9,10.5V21h12.7v6.3H179.9V39.8h-7.2V4.2h22.7v6.3Z"/><path d="M204.5,38.5a10.6,10.6,0,0,1-4.6-5.9,30.1,30.1,0,0,1-1.5-10.4,30.7,30.7,0,0,1,1.5-10.5,11.5,11.5,0,0,1,4.6-6.1,17,17,0,0,1,8.7-2,16.3,16.3,0,0,1,8.6,2,11.7,11.7,0,0,1,4.7,6.1,31,31,0,0,1,1.4,10.5,33.1,33.1,0,0,1-1.3,10.3,11.2,11.2,0,0,1-4.7,5.9c-2.1,1.4-5.1,2.1-8.7,2.1A17,17,0,0,1,204.5,38.5ZM217.6,33a6.5,6.5,0,0,0,2.3-3.8,31.8,31.8,0,0,0,.6-7,27.3,27.3,0,0,0-.7-7.1,6.7,6.7,0,0,0-2.2-3.9,6.8,6.8,0,0,0-4.4-1.3,6.6,6.6,0,0,0-4.4,1.3,6.8,6.8,0,0,0-2.3,3.9,33.5,33.5,0,0,0-.6,7.1,31.5,31.5,0,0,0,.5,6.7,6.8,6.8,0,0,0,2.2,3.9,7,7,0,0,0,4.6,1.4A7.2,7.2,0,0,0,217.6,33Z"/><path d="M262.6,4.2V39.8H250.8l-8.9-29.3h-.6V39.8h-7.2V4.2h12.2l8.6,29.4h.5V4.2Z"/><path d="M276.7,10.6h-9.5V4.2h26.2v6.4H284V39.8h-7.3Z"/><path d="M316.7,10.5V21h12.6v6.3H316.7V39.8h-7.3V4.2h22.8v6.3Z"/><path d="M354.3,33.4H341.8l-1.4,6.4h-7.2l8-35.6h13.7l8,35.6h-7.2Zm-5-23.2h-2.5l-3.6,16.9h9.7Z"/><path d="M404.8,4.2V39.8h-7.2V12.3h-.8l-7,26h-7.2l-6.9-26h-.8V39.8h-7.3V4.2H380l6.2,25.9,6.3-25.9Z"/><path d="M412.6,4.2h7.2V39.8h-7.2Z"/><path d="M447.8,33.4v6.4H427.5V4.2h7.3V33.4Z"/><path d="M454.9,25.4l-11-21.2h8l6.6,14.2L465,4.2h8L462.1,25.4V39.8h-7.2Z"/><path d="M22.6,82.2a8.3,8.3,0,0,1-3.4-5,33.5,33.5,0,0,1-1-8.7,34.7,34.7,0,0,1,1-8.9,8.7,8.7,0,0,1,3.4-5c1.6-1.1,3.9-1.6,6.9-1.6a38,38,0,0,1,8.3,1v3.5a42.6,42.6,0,0,0-7.4-.8,8.2,8.2,0,0,0-4.9,1.2,5.4,5.4,0,0,0-2.3,3.7,45.3,45.3,0,0,0-.5,7.5,27,27,0,0,0,.6,6.5A5.1,5.1,0,0,0,25.4,79a8.7,8.7,0,0,0,5.1,1.2,44.8,44.8,0,0,0,7.2-.8V83a45.2,45.2,0,0,1-8,.9C26.6,83.9,24.3,83.4,22.6,82.2Z"/><path d="M42.8,82.2a7,7,0,0,1-1.6-5c0-2.2.5-3.8,1.6-4.8a9.2,9.2,0,0,1,5.3-1.8l6.2-.6V68.3a4.3,4.3,0,0,0-.8-2.8,3.7,3.7,0,0,0-2.5-.8c-2.4,0-5.2.2-8.4.5V62.3A33.1,33.1,0,0,1,51,61.2c2.6,0,4.5.5,5.6,1.7s1.8,2.9,1.8,5.4V78.8a1.7,1.7,0,0,0,.6,1.4,2.7,2.7,0,0,0,1.6.6l-.2,3.1a10.4,10.4,0,0,1-3.2-.4,7.6,7.6,0,0,1-2.3-1.3,16.3,16.3,0,0,1-7.4,1.7A5.9,5.9,0,0,1,42.8,82.2Zm10.6-2.5.9-.3V73l-5.7.5a4.4,4.4,0,0,0-2.5,1,3.7,3.7,0,0,0-.8,2.5c0,2.4,1,3.5,3,3.5A15.1,15.1,0,0,0,53.4,79.7Z"/><path d="M64.6,53h4v4.4h-4Zm0,8.6h4V83.5h-4Z"/><path d="M74.6,61.6h4v2.8a21.8,21.8,0,0,1,7.7-3.2v4.1l-3.5.9a20.2,20.2,0,0,0-3.1,1.2l-1,.5V83.5H74.6Z"/><path d="M91,81.2c-1.5-1.8-2.3-4.7-2.3-8.6s.8-6.9,2.3-8.7,3.9-2.7,7.3-2.7,5.8.9,7.3,2.7,2.2,4.8,2.2,8.7-.7,6.8-2.2,8.6-3.9,2.7-7.3,2.7S92.4,83,91,81.2Zm10.5-1.5a4,4,0,0,0,1.7-2.4,18.6,18.6,0,0,0,.5-4.7,20.1,20.1,0,0,0-.5-4.8,4.4,4.4,0,0,0-1.7-2.4,5.8,5.8,0,0,0-3.2-.7,5.6,5.6,0,0,0-3.2.7,3.9,3.9,0,0,0-1.7,2.5,14.9,14.9,0,0,0-.5,4.7,14.2,14.2,0,0,0,.5,4.6A3.8,3.8,0,0,0,95,79.7a6.2,6.2,0,0,0,3.3.7A5.6,5.6,0,0,0,101.5,79.7Z"/><path d="M122.4,53h4v4.4h-4Zm0,8.6h4.1V83.5h-4.1Z"/><path d="M132.9,83.2l-1.3-.2.2-3.5a63.8,63.8,0,0,0,7.5.8,7.7,7.7,0,0,0,3.5-.7,2.6,2.6,0,0,0,1.2-2.3,2.2,2.2,0,0,0-.6-1.7,3.8,3.8,0,0,0-1.5-.9,12,12,0,0,0-2.6-.5l-1.1-.2a21.8,21.8,0,0,1-3.9-1,5.2,5.2,0,0,1-2.3-1.8,6.1,6.1,0,0,1-.7-3.2c0-4.5,2.7-6.8,8.3-6.8a35.2,35.2,0,0,1,6.5.7l1.3.2v3.4a73.8,73.8,0,0,0-7.5-.7q-4.5,0-4.5,2.7a2.1,2.1,0,0,0,.6,1.6l1.4.8,2.6.6,1.2.2a21.4,21.4,0,0,1,4.1,1.1,4.2,4.2,0,0,1,2.1,1.8,6.8,6.8,0,0,1,.8,3.4,6.5,6.5,0,0,1-2.1,5.3c-1.4,1.1-3.6,1.6-6.5,1.6A37,37,0,0,1,132.9,83.2Z"/><path d="M162.6,82.2a7.5,7.5,0,0,1-1.6-5,6.2,6.2,0,0,1,1.7-4.8,8.6,8.6,0,0,1,5.2-1.8l6.2-.6V68.3a3.8,3.8,0,0,0-.8-2.8,3.5,3.5,0,0,0-2.4-.8c-2.5,0-5.3.2-8.5.5V62.3a33.8,33.8,0,0,1,8.6-1.1c2.5,0,4.4.5,5.6,1.7s1.7,2.9,1.7,5.4V78.8a2.6,2.6,0,0,0,.6,1.4,3,3,0,0,0,1.6.6l-.2,3.1a9.3,9.3,0,0,1-3.1-.4,5.8,5.8,0,0,1-2.3-1.3,17.1,17.1,0,0,1-7.5,1.7A6.1,6.1,0,0,1,162.6,82.2Zm10.6-2.5.9-.3V73l-5.6.5a3.9,3.9,0,0,0-2.5,1,3.3,3.3,0,0,0-.8,2.5c0,2.4.9,3.5,2.9,3.5A14.4,14.4,0,0,0,173.2,79.7Z"/><path d="M194.3,52.4h4V83.5h-4Z"/><path d="M204.8,82.2a7,7,0,0,1-1.6-5c0-2.2.5-3.8,1.7-4.8a8.6,8.6,0,0,1,5.2-1.8l6.2-.6V68.3a4.3,4.3,0,0,0-.8-2.8,3.6,3.6,0,0,0-2.4-.8c-2.5,0-5.3.2-8.5.5V62.3a33.3,33.3,0,0,1,8.6-1.1c2.5,0,4.4.5,5.5,1.7s1.8,2.9,1.8,5.4V78.8a1.7,1.7,0,0,0,.6,1.4,2.7,2.7,0,0,0,1.6.6l-.2,3.1a10.4,10.4,0,0,1-3.2-.4,7.6,7.6,0,0,1-2.3-1.3,16.3,16.3,0,0,1-7.4,1.7A6.1,6.1,0,0,1,204.8,82.2Zm10.6-2.5.9-.3V73l-5.6.5a4.5,4.5,0,0,0-2.6,1,3.7,3.7,0,0,0-.8,2.5c0,2.4,1,3.5,3,3.5A15.1,15.1,0,0,0,215.4,79.7Z"/><path d="M226.6,61.6h4v2.8a21.1,21.1,0,0,1,7.7-3.2v4.1l-3.6.9-3,1.2-1.1.5V83.5h-4Z"/><path d="M243,92.2c-1.5-.9-2.2-2.5-2.2-4.7a5.1,5.1,0,0,1,.7-3,11.2,11.2,0,0,1,2.7-2.6,2.8,2.8,0,0,1-1.1-1.3,4.5,4.5,0,0,1-.3-1.6,3.1,3.1,0,0,1,.3-1.3,15.5,15.5,0,0,1,1.3-2.4c-2.2-1.2-3.3-3.3-3.3-6.5,0-5.1,2.8-7.6,8.5-7.6a18.5,18.5,0,0,1,4.4.6l6.6-.2V65l-3.8-.2a6.4,6.4,0,0,1,1,1.8,7.8,7.8,0,0,1,.3,2.4c0,2.6-.7,4.4-2.1,5.5s-3.5,1.7-6.5,1.7a6.2,6.2,0,0,1-2.1-.2,6.4,6.4,0,0,0-.7,2.4,1.4,1.4,0,0,0,.8,1.4,9.1,9.1,0,0,0,2.7.3h1.5a21.1,21.1,0,0,1,4.9.5,5,5,0,0,1,2.8,1.7,6.3,6.3,0,0,1,1,3.9c0,2.6-.8,4.4-2.4,5.6s-4.3,1.8-8,1.8S244.5,93.1,243,92.2Zm11.9-2.8a3.2,3.2,0,0,0,1.4-2.9,3,3,0,0,0-.5-1.8,2.8,2.8,0,0,0-1.5-.8l-3-.2-4.4-.3a6.7,6.7,0,0,0-1.7,1.7,4.8,4.8,0,0,0-.4,1.8,2.7,2.7,0,0,0,1.3,2.6,8.3,8.3,0,0,0,4.2.8C252.5,90.3,254.1,90,254.9,89.4ZM253,72c.7-.6,1-1.7,1-3.3a4.5,4.5,0,0,0-1-3.3,5.3,5.3,0,0,0-3.4-1,4.6,4.6,0,0,0-3.4,1.1,4.2,4.2,0,0,0-1.1,3.3,4.1,4.1,0,0,0,1.1,3.2,6.3,6.3,0,0,0,6.8,0Z"/><path d="M265.6,81.3c-1.4-1.7-2.1-4.4-2.1-8.2s.7-7,2.3-9,3.9-2.9,7.1-2.9c5.9,0,8.9,3.3,8.9,10.1l-.3,2.9H267.6a9.2,9.2,0,0,0,.6,3.7,3.5,3.5,0,0,0,1.8,1.8,9,9,0,0,0,3.6.6h6.1l1.2-.2v3.2a60.1,60.1,0,0,1-8.2.8C269.4,83.9,267,83.1,265.6,81.3Zm12.1-10.2a9.2,9.2,0,0,0-1.1-5.1,4.7,4.7,0,0,0-3.7-1.4,5.1,5.1,0,0,0-4.1,1.5c-.8,1-1.2,2.7-1.3,5Z"/><path d="M297.2,65.1h-2.7V61.6h2.7V60a16.3,16.3,0,0,1,.5-4.9,4.2,4.2,0,0,1,1.9-2.4,6.9,6.9,0,0,1,3.6-.8l4.6.4v3.3h-4a1.9,1.9,0,0,0-1.9,1.2,7.5,7.5,0,0,0-.6,3.3v1.6h6v3.5h-6V83.5h-4Z"/><path d="M311.9,81.2c-1.5-1.8-2.2-4.7-2.2-8.6s.7-6.9,2.2-8.7,4-2.7,7.3-2.7,5.8.9,7.3,2.7,2.3,4.8,2.3,8.7-.8,6.8-2.2,8.6-4,2.7-7.4,2.7S313.4,83,311.9,81.2Zm10.6-1.5a4.3,4.3,0,0,0,1.6-2.4,18.6,18.6,0,0,0,.5-4.7,20.1,20.1,0,0,0-.5-4.8,4,4,0,0,0-1.7-2.4,5.6,5.6,0,0,0-3.2-.7,6.1,6.1,0,0,0-3.2.7,3.9,3.9,0,0,0-1.7,2.5,18.6,18.6,0,0,0-.5,4.7,17.8,17.8,0,0,0,.5,4.6,3.9,3.9,0,0,0,1.7,2.5,5.6,5.6,0,0,0,3.2.7A6.2,6.2,0,0,0,322.5,79.7Z"/><path d="M333.7,61.6h4.1v1.5a14.2,14.2,0,0,1,3.4-1.5,11.2,11.2,0,0,1,3.2-.4,6.9,6.9,0,0,1,4.3,1.1,5.3,5.3,0,0,1,2.2,3.3,21.5,21.5,0,0,1,.7,6.3V83.5h-4.1V71.9a22.6,22.6,0,0,0-.3-4.2,3.6,3.6,0,0,0-1.2-2.2,4.7,4.7,0,0,0-2.6-.7,14.8,14.8,0,0,0-4.9,1l-.7.4V83.5h-4.1Z"/><path d="M360.8,83.2a4.1,4.1,0,0,1-1.9-2.5,16,16,0,0,1-.5-4.8V65.1h-3V61.6h3V55.1h4v6.5h6.4v3.5h-6.4v10a21.6,21.6,0,0,0,.2,3.1,2.6,2.6,0,0,0,.7,1.6,3,3,0,0,0,1.8.5l3.7-.2.3,3.3a24.9,24.9,0,0,1-4.7.5A7,7,0,0,1,360.8,83.2Z"/><path d="M383.3,65.1h-2.6V61.6h2.6V60a15.9,15.9,0,0,1,.6-4.9,4.2,4.2,0,0,1,1.9-2.4,6.9,6.9,0,0,1,3.6-.8l4.5.4v3.3h-4a2.1,2.1,0,0,0-2,1.2,9.5,9.5,0,0,0-.5,3.3v1.6h6v3.5h-6V83.5h-4.1Z"/><path d="M397.4,82.2a7,7,0,0,1-1.6-5c0-2.2.5-3.8,1.6-4.8a9,9,0,0,1,5.3-1.8l6.2-.6V68.3a4.3,4.3,0,0,0-.8-2.8,3.7,3.7,0,0,0-2.5-.8c-2.4,0-5.2.2-8.4.5l-.2-2.9a34.4,34.4,0,0,1,8.6-1.1c2.6,0,4.5.5,5.6,1.7s1.8,2.9,1.8,5.4V78.8a1.7,1.7,0,0,0,.6,1.4,2.6,2.6,0,0,0,1.5.6v3.1a10.4,10.4,0,0,1-3.2-.4,7.6,7.6,0,0,1-2.3-1.3,16.6,16.6,0,0,1-7.4,1.7A5.9,5.9,0,0,1,397.4,82.2ZM408,79.7l.9-.3V73l-5.7.5a4.4,4.4,0,0,0-2.5,1,3.7,3.7,0,0,0-.8,2.5c0,2.4,1,3.5,2.9,3.5A15.3,15.3,0,0,0,408,79.7Z"/><path d="M419.2,61.6h4v1.5a17.5,17.5,0,0,1,3.1-1.5,10.6,10.6,0,0,1,3.1-.4,8.1,8.1,0,0,1,3.1.5,5.6,5.6,0,0,1,2.3,1.6,18.8,18.8,0,0,1,3.8-1.5,15.2,15.2,0,0,1,4.2-.6,6.6,6.6,0,0,1,4.2,1.1,5.7,5.7,0,0,1,2.2,3.4,24.6,24.6,0,0,1,.7,6.2V83.5h-4.1V71.9a22.6,22.6,0,0,0-.3-4.2,3.6,3.6,0,0,0-1.2-2.2,4.4,4.4,0,0,0-2.5-.7,10.7,10.7,0,0,0-2.5.3,10.5,10.5,0,0,0-2.3.7l-.8.4a28.1,28.1,0,0,1,.4,5.9V83.5h-4.1V72.2a26.4,26.4,0,0,0-.3-4.5,3.6,3.6,0,0,0-1.1-2.2,4.4,4.4,0,0,0-2.5-.7,10.7,10.7,0,0,0-2.5.3l-2.2.7-.7.4V83.5h-4Z"/><path d="M455.7,53h4v4.4h-4Zm0,8.6h4V83.5h-4Z"/><path d="M466,52.4h4V83.5h-4Z"/><path d="M483,83.5h-3.6l-5.9-21.9h4.1L482.5,80h1.3l5.1-18.4h4L484.3,93h-4Z"/><path d="M26.7,97.7H19.9V95.5h16v2.2H29.1v19.9H26.7Z"/><path d="M38.6,94.7H41v7.8l2.6-.9a10.1,10.1,0,0,1,2.5-.3,6.1,6.1,0,0,1,3.2.8,4.3,4.3,0,0,1,1.6,2.4,19.5,19.5,0,0,1,.4,4.7v8.4H48.9v-8.4a16.8,16.8,0,0,0-.2-3.5,2.7,2.7,0,0,0-1.1-1.7,3.4,3.4,0,0,0-2.2-.5,10.6,10.6,0,0,0-3.8.7l-.6.2v13.2H38.6Z"/><path d="M56.6,116q-1.5-1.8-1.5-6c0-2.9.5-5.1,1.6-6.5a5.9,5.9,0,0,1,5.1-2.2q3.3,0,4.8,1.8c1.1,1.3,1.6,3.2,1.6,5.7v1.8H57.5a11.7,11.7,0,0,0,.4,3.1,2.6,2.6,0,0,0,1.5,1.6,6,6,0,0,0,2.9.5h2.2l2.2-.2h.9v1.9a35.8,35.8,0,0,1-5.9.5C59.3,117.9,57.6,117.3,56.6,116Zm9.2-7.3a7.1,7.1,0,0,0-.9-4.1,3.5,3.5,0,0,0-3.1-1.3,4.1,4.1,0,0,0-3.2,1.3,6.5,6.5,0,0,0-1.1,4.1Z"/><path d="M79,101.6h2.3v1.1a14,14,0,0,1,2.7-1.1,10.1,10.1,0,0,1,2.5-.3,5.8,5.8,0,0,1,3.2.8,4.2,4.2,0,0,1,1.5,2.4,14.9,14.9,0,0,1,.5,4.7v8.4H89.3v-8.4a15.7,15.7,0,0,0-.2-3.4,2.9,2.9,0,0,0-1-1.8,3.3,3.3,0,0,0-2.1-.5,8.6,8.6,0,0,0-2.2.2l-1.8.6-.6.3v13H79Z"/><path d="M96.3,116.7a4.9,4.9,0,0,1-1.2-3.6,4.4,4.4,0,0,1,1.2-3.4,6,6,0,0,1,3.7-1.4l5-.5v-1.3c0-2.1-.8-3.1-2.6-3.1s-3.8.2-6.3.4V102a29.6,29.6,0,0,1,6.3-.7,5.4,5.4,0,0,1,3.9,1.2,5.8,5.8,0,0,1,1.2,4v8.1c.1.8.7,1.3,1.9,1.5v1.8a5.4,5.4,0,0,1-3.8-1.2,14.7,14.7,0,0,1-5.8,1.2A4.5,4.5,0,0,1,96.3,116.7Zm8-1.5.7-.3v-5.2l-4.7.4a4,4,0,0,0-2.1.8,3.3,3.3,0,0,0-.6,2.1c0,1.9.8,2.9,2.4,2.9A12.5,12.5,0,0,0,104.3,115.2Z"/><path d="M114.7,117.4a2.9,2.9,0,0,1-1.3-1.7,11.9,11.9,0,0,1-.4-3.6v-8.4h-2.3v-2.1H113V96.7h2.4v4.9h5.1v2.1h-5.1v7.7a18.6,18.6,0,0,0,.1,2.6,2.6,2.6,0,0,0,.6,1.4,2.5,2.5,0,0,0,1.6.4l2.8-.2.2,2a18.5,18.5,0,0,1-3.4.4A4.8,4.8,0,0,1,114.7,117.4Z"/><path d="M125.2,117.2a4.1,4.1,0,0,1-1.5-2.5,18.6,18.6,0,0,1-.5-4.7v-8.4h2.4v8.3a17,17,0,0,0,.3,3.7,3.4,3.4,0,0,0,.9,1.7,4.1,4.1,0,0,0,2.1.5,9.5,9.5,0,0,0,4.5-1.2v-13h2.4v16h-2.4v-1.1a12.2,12.2,0,0,1-2.4,1.1,10.3,10.3,0,0,1-2.6.3A5.8,5.8,0,0,1,125.2,117.2Z"/><path d="M140.4,101.6h2.4v2.2a14.2,14.2,0,0,1,5.8-2.5v2.4a19.5,19.5,0,0,0-2.7.8,13,13,0,0,0-2.3,1l-.8.4v11.7h-2.4Z"/><path d="M152,116c-1.1-1.2-1.6-3.2-1.6-6s.6-5.1,1.7-6.5a5.9,5.9,0,0,1,5.1-2.2,6.2,6.2,0,0,1,4.8,1.8,9.2,9.2,0,0,1,1.6,5.7l-.2,1.8H152.9a8.6,8.6,0,0,0,.4,3.1,2.6,2.6,0,0,0,1.5,1.6,5.8,5.8,0,0,0,2.9.5h2.1l2.2-.2h.9v1.9a35,35,0,0,1-5.9.5C154.7,117.9,153,117.3,152,116Zm9.2-7.3a7,7,0,0,0-1-4.1,3.3,3.3,0,0,0-3-1.3,4.2,4.2,0,0,0-3.3,1.3,7.2,7.2,0,0,0-1.1,4.1Z"/><path d="M176.4,117.1a4.6,4.6,0,0,1-2.1-2.6,12.8,12.8,0,0,1-.7-4.8,16.4,16.4,0,0,1,.7-4.9,4.4,4.4,0,0,1,2.2-2.6,9.3,9.3,0,0,1,8,0,4.2,4.2,0,0,1,2.1,2.7,12.8,12.8,0,0,1,.7,4.8,15.6,15.6,0,0,1-.6,4.8,5,5,0,0,1-2.1,2.6,10.9,10.9,0,0,1-8.2,0Zm6.8-1.8a3.8,3.8,0,0,0,1.3-1.9,16.6,16.6,0,0,0,.4-3.7,17.6,17.6,0,0,0-.4-3.8,3.1,3.1,0,0,0-1.3-1.9,5.1,5.1,0,0,0-2.7-.6,5.4,5.4,0,0,0-2.7.6,3.1,3.1,0,0,0-1.3,1.9,12.9,12.9,0,0,0-.4,3.8,12.2,12.2,0,0,0,.4,3.7,2.9,2.9,0,0,0,1.3,1.9,6.4,6.4,0,0,0,5.4,0Z"/><path d="M191.9,103.7h-2v-2.1h2v-1.4a10.8,10.8,0,0,1,.4-3.5,2.6,2.6,0,0,1,1.4-1.8,4.4,4.4,0,0,1,2.5-.6l3.2.3v1.9h-3.1a1.8,1.8,0,0,0-1.6,1,6.9,6.9,0,0,0-.4,2.8v1.4h4.6v2.1h-4.6v13.9h-2.4Z"/><path d="M211.4,117.4a2.6,2.6,0,0,1-1.3-1.7,11.9,11.9,0,0,1-.4-3.6v-8.4h-2.3v-2.1h2.3V96.7H212v4.9h5.1v2.1H212v7.7a16.1,16.1,0,0,0,.2,2.6,2.6,2.6,0,0,0,.6,1.4,2.2,2.2,0,0,0,1.6.4l2.8-.2.2,2a19.4,19.4,0,0,1-3.5.4A4.4,4.4,0,0,1,211.4,117.4Z"/><path d="M220.1,94.7h2.4v7.8l2.6-.9,2.4-.3a5.6,5.6,0,0,1,3.2.8,3.8,3.8,0,0,1,1.6,2.4,14.9,14.9,0,0,1,.5,4.7v8.4h-2.4v-8.4a15.6,15.6,0,0,0-.3-3.5,2.3,2.3,0,0,0-1-1.7,3.4,3.4,0,0,0-2.2-.5,10.6,10.6,0,0,0-3.8.7l-.6.2v13.2h-2.4Z"/><path d="M238.1,116q-1.5-1.8-1.5-6c0-2.9.5-5.1,1.6-6.5a5.9,5.9,0,0,1,5.1-2.2,6.2,6.2,0,0,1,4.8,1.8,9.2,9.2,0,0,1,1.6,5.7l-.2,1.8H239a8.6,8.6,0,0,0,.4,3.1,2.6,2.6,0,0,0,1.5,1.6,5.8,5.8,0,0,0,2.9.5h2.1l2.2-.2h1v1.9a34.2,34.2,0,0,1-5.9.5C240.8,117.9,239.1,117.3,238.1,116Zm9.2-7.3c0-1.9-.3-3.3-1-4.1a3.3,3.3,0,0,0-3-1.3,4.2,4.2,0,0,0-3.3,1.3,6.5,6.5,0,0,0-1,4.1Z"/><path d="M261.1,103.7h-2v-2.1h2v-1.4a14.6,14.6,0,0,1,.4-3.5,3,3,0,0,1,1.4-1.8,4.4,4.4,0,0,1,2.5-.6l3.3.3v1.9h-3a1.8,1.8,0,0,0-1.7,1,9.3,9.3,0,0,0-.4,2.8v1.4h4.7v2.1h-4.7v13.9h-2.4Z"/><path d="M272.8,117.1a4.6,4.6,0,0,1-2.1-2.6,15.2,15.2,0,0,1-.7-4.8,16.4,16.4,0,0,1,.7-4.9,4.8,4.8,0,0,1,2.2-2.6,9.3,9.3,0,0,1,8,0,4.7,4.7,0,0,1,2.2,2.7,19.5,19.5,0,0,1,0,9.6,4.6,4.6,0,0,1-2.1,2.6,10.9,10.9,0,0,1-8.2,0Zm6.8-1.8a3.3,3.3,0,0,0,1.3-1.9,16.6,16.6,0,0,0,.4-3.7,17.6,17.6,0,0,0-.4-3.8,3.1,3.1,0,0,0-1.3-1.9,4.9,4.9,0,0,0-2.7-.6,5.4,5.4,0,0,0-2.7.6,3.1,3.1,0,0,0-1.3,1.9,12.9,12.9,0,0,0-.4,3.8,12.2,12.2,0,0,0,.4,3.7,3.3,3.3,0,0,0,1.3,1.9,6.4,6.4,0,0,0,5.4,0Z"/><path d="M287.6,101.6H290v1.1a13.3,13.3,0,0,1,2.6-1.1,10.9,10.9,0,0,1,2.6-.3,5.4,5.4,0,0,1,3.1.8,3.8,3.8,0,0,1,1.6,2.4,18.6,18.6,0,0,1,.5,4.7v8.4H298v-8.4a14.6,14.6,0,0,0-.3-3.4,3.4,3.4,0,0,0-.9-1.8,3.3,3.3,0,0,0-2.1-.5,8.2,8.2,0,0,0-2.2.2l-1.9.6-.6.3v13h-2.4Z"/><path d="M307.3,117.4a3,3,0,0,1-1.4-1.7,16.3,16.3,0,0,1-.4-3.6v-8.4h-2.2v-2.1h2.2V96.7h2.4v4.9H313v2.1h-5.1v7.7c0,1.1.1,2,.1,2.6a2.1,2.1,0,0,0,.7,1.4,2.1,2.1,0,0,0,1.5.4l2.9-.2v2a17.7,17.7,0,0,1-3.4.4A4.4,4.4,0,0,1,307.3,117.4Z"/><path d="M323,95.2h2.4V98H323Zm0,6.4h2.4v16H323Z"/><path d="M330.3,117.5l-1-.2v-2l5.5.5a5.5,5.5,0,0,0,2.9-.6,2.3,2.3,0,0,0,1-2,2.1,2.1,0,0,0-.5-1.5,2.5,2.5,0,0,0-1.2-.8l-2-.4h-.8a12.6,12.6,0,0,1-3-.8,3.7,3.7,0,0,1-1.7-1.2,4.9,4.9,0,0,1-.5-2.3,4.2,4.2,0,0,1,1.6-3.7,7.7,7.7,0,0,1,4.4-1.1,24,24,0,0,1,4.6.5h.9V104a31.4,31.4,0,0,0-5.4-.5,5.2,5.2,0,0,0-2.8.5,2,2,0,0,0-.9,1.8,1.7,1.7,0,0,0,.4,1.3,1.9,1.9,0,0,0,1.2.7l2,.5h.8a12.3,12.3,0,0,1,3.1.8,3.2,3.2,0,0,1,1.6,1.4,3.8,3.8,0,0,1,.6,2.4,4.5,4.5,0,0,1-1.6,3.7,7.2,7.2,0,0,1-4.6,1.2A28.8,28.8,0,0,1,330.3,117.5Z"/><path d="M353.8,117.1a5.1,5.1,0,0,1-2-2.7,15.6,15.6,0,0,1-.6-4.8,12.3,12.3,0,0,1,1.3-6.1c.8-1.5,2.5-2.2,4.9-2.2h2a20.6,20.6,0,0,1,2.8.4v1.9a31.3,31.3,0,0,0-3.9-.2,5.6,5.6,0,0,0-2.8.5,3,3,0,0,0-1.3,1.9,12.5,12.5,0,0,0-.4,3.8,16.6,16.6,0,0,0,.3,3.6,3.5,3.5,0,0,0,1.4,1.9,6.1,6.1,0,0,0,3,.6l3.7-.3v2a32.6,32.6,0,0,1-4.6.4A7.2,7.2,0,0,1,353.8,117.1Z"/><path d="M367.7,117.1a4.6,4.6,0,0,1-2.1-2.6,12.8,12.8,0,0,1-.7-4.8,13.7,13.7,0,0,1,.7-4.9,4.4,4.4,0,0,1,2.2-2.6,7.6,7.6,0,0,1,4-.9,7.9,7.9,0,0,1,4,.9,4.2,4.2,0,0,1,2.1,2.7,12.8,12.8,0,0,1,.7,4.8,15.6,15.6,0,0,1-.6,4.8,5.2,5.2,0,0,1-2.2,2.6,7.5,7.5,0,0,1-4,.8A8.1,8.1,0,0,1,367.7,117.1Zm6.8-1.8a3.8,3.8,0,0,0,1.3-1.9,17.7,17.7,0,0,0,.3-3.7,18.7,18.7,0,0,0-.3-3.8,3.1,3.1,0,0,0-1.3-1.9,5.4,5.4,0,0,0-2.7-.6,5.1,5.1,0,0,0-2.7.6,2.7,2.7,0,0,0-1.3,1.9,12.9,12.9,0,0,0-.4,3.8,17.7,17.7,0,0,0,.3,3.7,3.4,3.4,0,0,0,1.4,1.9,6.4,6.4,0,0,0,5.4,0Z"/><path d="M382.5,101.6h2.4v1.1a11.2,11.2,0,0,1,2.6-1.1,10.7,10.7,0,0,1,2.5-.3,5.8,5.8,0,0,1,3.2.8,4.3,4.3,0,0,1,1.6,2.4,19.5,19.5,0,0,1,.4,4.7v8.4h-2.3v-8.4a14.6,14.6,0,0,0-.3-3.4,2.9,2.9,0,0,0-1-1.8,2.8,2.8,0,0,0-2-.5,8.2,8.2,0,0,0-2.2.2l-1.9.6-.6.3v13h-2.4Z"/><path d="M400.3,116c-.9-1.3-1.3-3.4-1.3-6.1s.5-5.2,1.6-6.6,2.8-2,5.2-2a16.9,16.9,0,0,1,3.8.4v-7H412v22.9h-2.4v-1.1a9.3,9.3,0,0,1-5,1.4A4.8,4.8,0,0,1,400.3,116Zm6.8-.5,1.9-.6.6-.3V103.8a17.1,17.1,0,0,0-3.6-.4c-1.7,0-2.9.5-3.5,1.5a8.3,8.3,0,0,0-1.1,4.8,9.1,9.1,0,0,0,.9,4.6,2.9,2.9,0,0,0,2.8,1.5Z"/><path d="M417.2,116q-1.5-1.8-1.5-6a11.3,11.3,0,0,1,1.6-6.5c1.1-1.5,2.8-2.2,5.2-2.2a5.8,5.8,0,0,1,4.7,1.8c1.1,1.3,1.6,3.2,1.6,5.7v1.8H418.1a8.3,8.3,0,0,0,.5,3.1,2.6,2.6,0,0,0,1.5,1.6,5.4,5.4,0,0,0,2.8.5h2.2l2.2-.2h.9v1.9a35,35,0,0,1-5.9.5C420,117.9,418.2,117.3,417.2,116Zm9.2-7.3a7.1,7.1,0,0,0-.9-4.1,3.3,3.3,0,0,0-3-1.3,4.2,4.2,0,0,0-3.3,1.3,6.5,6.5,0,0,0-1.1,4.1Z"/><path d="M432.6,101.6h2.3v1.1a14,14,0,0,1,2.7-1.1,10.1,10.1,0,0,1,2.5-.3,5.8,5.8,0,0,1,3.2.8,4.2,4.2,0,0,1,1.5,2.4,14.9,14.9,0,0,1,.5,4.7v8.4h-2.4v-8.4a26.8,26.8,0,0,0-.2-3.4,2.9,2.9,0,0,0-1-1.8,3.3,3.3,0,0,0-2.1-.5,8.6,8.6,0,0,0-2.2.2l-1.8.6-.6.3v13h-2.4Z"/><path d="M450.1,117.5l-1-.2v-2l5.5.5a5.5,5.5,0,0,0,2.9-.6,2.3,2.3,0,0,0,.9-2,2.1,2.1,0,0,0-.4-1.5,2.5,2.5,0,0,0-1.2-.8l-2-.4h-.8a12.6,12.6,0,0,1-3-.8,3.7,3.7,0,0,1-1.7-1.2,4.9,4.9,0,0,1-.5-2.3,4.2,4.2,0,0,1,1.6-3.7,7.7,7.7,0,0,1,4.4-1.1,24,24,0,0,1,4.6.5h.9V104a31.4,31.4,0,0,0-5.4-.5,5.2,5.2,0,0,0-2.8.5,2,2,0,0,0-.9,1.8,1.7,1.7,0,0,0,.4,1.3,1.9,1.9,0,0,0,1.2.7l2,.5h.8a12.3,12.3,0,0,1,3.1.8,3.2,3.2,0,0,1,1.6,1.4,3.9,3.9,0,0,1,.5,2.4,4.4,4.4,0,0,1-1.5,3.7,7.2,7.2,0,0,1-4.6,1.2A28.8,28.8,0,0,1,450.1,117.5Z"/><path d="M465.4,116q-1.5-1.8-1.5-6c0-2.9.6-5.1,1.7-6.5s2.7-2.2,5.1-2.2a6.2,6.2,0,0,1,4.8,1.8,9.2,9.2,0,0,1,1.5,5.7v1.8H466.4a8.6,8.6,0,0,0,.4,3.1,2.6,2.6,0,0,0,1.5,1.6,5.6,5.6,0,0,0,2.9.5h2.1l2.2-.2h.9v1.9a35,35,0,0,1-5.9.5C468.2,117.9,466.5,117.3,465.4,116Zm9.2-7.3a7.1,7.1,0,0,0-.9-4.1,3.3,3.3,0,0,0-3-1.3,4.2,4.2,0,0,0-3.3,1.3,6.5,6.5,0,0,0-1.1,4.1Z"/><path d="M481.4,116c-.9-1.3-1.3-3.4-1.3-6.1s.5-5.2,1.6-6.6,2.8-2,5.2-2a16.9,16.9,0,0,1,3.8.4v-7h2.4v22.9h-2.4v-1.1a9.3,9.3,0,0,1-5,1.4A4.8,4.8,0,0,1,481.4,116Zm6.8-.5,1.9-.6.6-.3V103.8a17.1,17.1,0,0,0-3.6-.4,4.1,4.1,0,0,0-3.6,1.5,9.3,9.3,0,0,0-1,4.8,9.1,9.1,0,0,0,.9,4.6,2.8,2.8,0,0,0,2.8,1.5Z"/><path d="M21.9,148.7a4.9,4.9,0,0,1-1.1-3.6,4.4,4.4,0,0,1,1.1-3.4,6.1,6.1,0,0,1,3.8-1.4l5-.5v-1.4c0-2-.9-3-2.6-3a50.6,50.6,0,0,0-6.3.4V134a28.1,28.1,0,0,1,6.2-.7,5.4,5.4,0,0,1,3.9,1.2,5.1,5.1,0,0,1,1.3,3.9v8.2c0,.8.7,1.3,1.8,1.4v1.9a5.6,5.6,0,0,1-3.8-1.2,14.6,14.6,0,0,1-5.7,1.2A4.5,4.5,0,0,1,21.9,148.7Zm8-1.5.8-.3v-5.3l-4.8.5a3.4,3.4,0,0,0-2,.8,2.8,2.8,0,0,0-.7,2.1c0,1.9.8,2.9,2.5,2.9A12.3,12.3,0,0,0,29.9,147.2Z"/><path d="M37.8,133.6h2.4v1.1a11.2,11.2,0,0,1,2.6-1.1,10.7,10.7,0,0,1,2.5-.3,5.8,5.8,0,0,1,3.2.8,4.3,4.3,0,0,1,1.6,2.4,19.5,19.5,0,0,1,.4,4.7v8.4H48.2v-8.4a16.2,16.2,0,0,0-.3-3.5,2.6,2.6,0,0,0-1-1.7,2.8,2.8,0,0,0-2-.6,8.3,8.3,0,0,0-2.2.3l-1.9.6-.6.3v13H37.8Z"/><path d="M55.6,148c-.9-1.3-1.3-3.4-1.3-6.1s.5-5.2,1.6-6.6,2.8-2,5.2-2a16.9,16.9,0,0,1,3.8.4v-7.1h2.4v23H64.9v-1.1a9.3,9.3,0,0,1-5,1.4A4.8,4.8,0,0,1,55.6,148Zm6.8-.5,1.9-.6.6-.3V135.8a17.1,17.1,0,0,0-3.6-.4c-1.7,0-2.9.5-3.5,1.4a8.9,8.9,0,0,0-1.1,4.9,9.1,9.1,0,0,0,.9,4.6,2.9,2.9,0,0,0,2.8,1.5Z"/><path d="M78.9,126.6h2.4v7.9l2.7-.9,2.4-.3a5.6,5.6,0,0,1,3.2.7,4.1,4.1,0,0,1,1.6,2.5,18.6,18.6,0,0,1,.5,4.7v8.4H89.3v-8.4a15.6,15.6,0,0,0-.3-3.5,2.6,2.6,0,0,0-1-1.7,3.6,3.6,0,0,0-2.2-.6,10.4,10.4,0,0,0-3.8.8l-.7.2v13.2H78.9Z"/><path d="M96.1,127.2h2.4V130H96.1Zm0,6.4h2.4v16H96.1Z"/><path d="M103.6,156.1a4.2,4.2,0,0,1-1.5-3.6,7.2,7.2,0,0,1,.2-1.7l.8-1.2,1.5-1.3a1.2,1.2,0,0,1-.6-.8,2.7,2.7,0,0,1-.3-1.2,4.4,4.4,0,0,1,.2-1l.9-1.7c-1.7-.7-2.5-2.3-2.5-4.8a5.1,5.1,0,0,1,1.5-4.1c1-1,2.5-1.4,4.5-1.4a13.5,13.5,0,0,1,3.3.4h4.7v2h-3a2.9,2.9,0,0,1,.8,1.3,5.6,5.6,0,0,1,.3,2,5.1,5.1,0,0,1-1.5,4.1,7.4,7.4,0,0,1-4.7,1.2l-1.6-.2-.4,1.2a3.1,3.1,0,0,0-.2.8,1.1,1.1,0,0,0,.7,1.1,5.3,5.3,0,0,0,2,.2H110a10.9,10.9,0,0,1,3.4.4,3.4,3.4,0,0,1,2,1.3,4.3,4.3,0,0,1,.7,2.8,4.7,4.7,0,0,1-1.7,4c-1.2.9-3.1,1.3-5.7,1.3S104.6,156.8,103.6,156.1Zm9-1.7a2.8,2.8,0,0,0,1.1-2.5,2.7,2.7,0,0,0-.4-1.5,1.8,1.8,0,0,0-1.2-.8h-2.4l-3.4-.2a11.6,11.6,0,0,0-1.5,1.3,3.5,3.5,0,0,0-.3,1.6,2.7,2.7,0,0,0,.9,2.3,7.3,7.3,0,0,0,3.5.6A6.7,6.7,0,0,0,112.6,154.4Zm-1.5-12.9a3.8,3.8,0,0,0,.9-2.8,3.7,3.7,0,0,0-.9-2.7,3.8,3.8,0,0,0-2.7-.8,4,4,0,0,0-2.9.9,3.8,3.8,0,0,0-.8,2.7,4.1,4.1,0,0,0,.8,2.7,4.3,4.3,0,0,0,2.8.8A4.1,4.1,0,0,0,111.1,141.5Z"/><path d="M119.3,126.6h2.3v7.9l2.7-.9,2.4-.3a5.6,5.6,0,0,1,3.2.7,4.1,4.1,0,0,1,1.6,2.5,18.6,18.6,0,0,1,.5,4.7v8.4h-2.4v-8.4a15.6,15.6,0,0,0-.3-3.5,2.6,2.6,0,0,0-1-1.7,3.6,3.6,0,0,0-2.2-.6,10.4,10.4,0,0,0-3.8.8l-.7.2v13.2h-2.3Z"/><path d="M143.8,149.5l-1-.2.2-2.1a37.1,37.1,0,0,0,5.5.6,5.3,5.3,0,0,0,2.8-.6,2.5,2.5,0,0,0,1-2,2.1,2.1,0,0,0-.5-1.5,2.5,2.5,0,0,0-1.2-.8l-2-.4h-.8a12.6,12.6,0,0,1-3-.8,4.3,4.3,0,0,1-1.7-1.2,4.9,4.9,0,0,1-.5-2.3,4.1,4.1,0,0,1,1.6-3.7,7.7,7.7,0,0,1,4.4-1.1,38.9,38.9,0,0,1,4.7.4l.8.2V136a33.6,33.6,0,0,0-5.4-.6,5.1,5.1,0,0,0-2.8.6,2,2,0,0,0-.9,1.8,1.7,1.7,0,0,0,.4,1.3,2.4,2.4,0,0,0,1.2.7l2,.4.8.2a12.3,12.3,0,0,1,3.1.8,3.5,3.5,0,0,1,1.6,1.3,5.2,5.2,0,0,1-1,6.2,7.2,7.2,0,0,1-4.6,1.2A28.8,28.8,0,0,1,143.8,149.5Z"/><path d="M159.2,148c-1.1-1.2-1.6-3.2-1.6-6a11.1,11.1,0,0,1,1.7-6.6,6.1,6.1,0,0,1,5.1-2.1,6.2,6.2,0,0,1,4.8,1.8,9,9,0,0,1,1.6,5.7l-.2,1.8H160.1a8.6,8.6,0,0,0,.4,3.1,2.6,2.6,0,0,0,1.5,1.6,5.8,5.8,0,0,0,2.9.5H167l2.2-.2h.9v1.9a35,35,0,0,1-5.9.5C161.9,149.9,160.2,149.3,159.2,148Zm9.2-7.3a7.4,7.4,0,0,0-1-4.2,3.5,3.5,0,0,0-3-1.2,3.9,3.9,0,0,0-3.3,1.3,7.2,7.2,0,0,0-1.1,4.1Z"/><path d="M175.3,148q-1.5-1.8-1.5-6c0-2.9.5-5.1,1.6-6.6a6.1,6.1,0,0,1,5.1-2.1q3.3,0,4.8,1.8c1.1,1.3,1.6,3.1,1.6,5.7v1.8H176.2a8.3,8.3,0,0,0,.5,3.1,2.3,2.3,0,0,0,1.4,1.6,6,6,0,0,0,2.9.5h2.2l2.2-.2h.9v1.9a35.8,35.8,0,0,1-5.9.5C178,149.9,176.3,149.3,175.3,148Zm9.2-7.3a7.5,7.5,0,0,0-.9-4.2,3.7,3.7,0,0,0-3.1-1.2,3.8,3.8,0,0,0-3.2,1.3,6.5,6.5,0,0,0-1.1,4.1Z"/><path d="M200.2,149.4a2.8,2.8,0,0,1-1.3-1.8,10.8,10.8,0,0,1-.4-3.5v-8.4h-2.3v-2.1h2.3v-4.9h2.4v4.9H206v2.1h-5.1v7.6a19.4,19.4,0,0,0,.1,2.7,3,3,0,0,0,.6,1.4,2.5,2.5,0,0,0,1.6.4l2.8-.2.2,2-3.4.4A4.8,4.8,0,0,1,200.2,149.4Z"/><path d="M208.9,126.6h2.4v7.9l2.6-.9a10.1,10.1,0,0,1,2.5-.3,5.8,5.8,0,0,1,3.2.7,4.5,4.5,0,0,1,1.6,2.5,19.5,19.5,0,0,1,.4,4.7v8.4h-2.4v-8.4a16.8,16.8,0,0,0-.2-3.5,2.4,2.4,0,0,0-1.1-1.7,3.4,3.4,0,0,0-2.2-.6,10.8,10.8,0,0,0-3.8.8l-.6.2v13.2h-2.4Z"/><path d="M226.1,133.6h2.4v2.2a14.2,14.2,0,0,1,5.8-2.5v2.4a19.5,19.5,0,0,0-2.7.8,13,13,0,0,0-2.3,1l-.8.4v11.7h-2.4Z"/><path d="M238.9,149.1a4.8,4.8,0,0,1-2.1-2.7,12.3,12.3,0,0,1-.7-4.7,16.4,16.4,0,0,1,.7-4.9,5.4,5.4,0,0,1,2.2-2.7,8.9,8.9,0,0,1,4-.8,7.6,7.6,0,0,1,4,.9,4.8,4.8,0,0,1,2.2,2.6,16.8,16.8,0,0,1,.6,4.9,14.9,14.9,0,0,1-.6,4.7,4.8,4.8,0,0,1-2.1,2.7,10.9,10.9,0,0,1-8.2,0Zm6.8-1.8a3.8,3.8,0,0,0,1.3-1.9,16.6,16.6,0,0,0,.4-3.7,16.9,16.9,0,0,0-.4-3.8,3.1,3.1,0,0,0-1.3-1.9,5.1,5.1,0,0,0-2.7-.6,5.4,5.4,0,0,0-2.7.6,3.1,3.1,0,0,0-1.3,1.9,12.5,12.5,0,0,0-.4,3.8,12.2,12.2,0,0,0,.4,3.7,2.9,2.9,0,0,0,1.3,1.9,6.4,6.4,0,0,0,5.4,0Z"/><path d="M255.6,149.2a3.8,3.8,0,0,1-1.6-2.5,19.5,19.5,0,0,1-.4-4.7v-8.4H256v8.3a29.3,29.3,0,0,0,.2,3.6,2.9,2.9,0,0,0,1,1.8,3.4,3.4,0,0,0,2,.5,9.5,9.5,0,0,0,4.5-1.2v-13h2.4v16h-2.4v-1.1a12.2,12.2,0,0,1-2.4,1.1,10.3,10.3,0,0,1-2.6.3A5.5,5.5,0,0,1,255.6,149.2Z"/><path d="M271.5,156.1a4.2,4.2,0,0,1-1.5-3.6,4,4,0,0,1,.3-1.7,3.7,3.7,0,0,1,.7-1.2l1.5-1.3a1.2,1.2,0,0,1-.6-.8,2.7,2.7,0,0,1-.3-1.2,4.4,4.4,0,0,1,.2-1l.9-1.7c-1.7-.7-2.5-2.3-2.5-4.8a5.1,5.1,0,0,1,1.5-4.1c1-1,2.5-1.4,4.5-1.4a13.5,13.5,0,0,1,3.3.4h4.7v2h-3a2.9,2.9,0,0,1,.8,1.3,5.6,5.6,0,0,1,.3,2,5.1,5.1,0,0,1-1.5,4.1,7.2,7.2,0,0,1-4.6,1.2l-1.7-.2c-.1.5-.3.8-.4,1.2a3.1,3.1,0,0,0-.2.8,1.1,1.1,0,0,0,.7,1.1,5.3,5.3,0,0,0,2,.2h1.3a10.9,10.9,0,0,1,3.4.4,3.1,3.1,0,0,1,2,1.3,4.3,4.3,0,0,1,.7,2.8,4.7,4.7,0,0,1-1.7,4c-1.2.9-3.1,1.3-5.7,1.3S272.5,156.8,271.5,156.1Zm9-1.7a2.8,2.8,0,0,0,1.1-2.5,2.7,2.7,0,0,0-.4-1.5,1.8,1.8,0,0,0-1.2-.8h-2.4l-3.4-.2a11.6,11.6,0,0,0-1.5,1.3,3.5,3.5,0,0,0-.3,1.6,2.5,2.5,0,0,0,1,2.3,6.6,6.6,0,0,0,3.4.6A6.7,6.7,0,0,0,280.5,154.4ZM279,141.5a3.8,3.8,0,0,0,.9-2.8,3.7,3.7,0,0,0-.9-2.7,3.8,3.8,0,0,0-2.7-.8,4,4,0,0,0-2.9.9,3.8,3.8,0,0,0-.8,2.7,4.1,4.1,0,0,0,.8,2.7,4.3,4.3,0,0,0,2.8.8A4.1,4.1,0,0,0,279,141.5Z"/><path d="M287.2,126.6h2.4v7.9l2.6-.9,2.4-.3a5.6,5.6,0,0,1,3.2.7,4.1,4.1,0,0,1,1.6,2.5,18.6,18.6,0,0,1,.5,4.7v8.4h-2.4v-8.4a15.6,15.6,0,0,0-.3-3.5,2.6,2.6,0,0,0-1-1.7,3.4,3.4,0,0,0-2.2-.6,10.8,10.8,0,0,0-3.8.8l-.6.2v13.2h-2.4Z"/><path d="M312,148c-.9-1.3-1.3-3.4-1.3-6.1s.5-5.2,1.6-6.6,2.7-2,5.2-2a16.9,16.9,0,0,1,3.8.4v-7.1h2.4v23h-2.4v-1.1a9.5,9.5,0,0,1-5,1.4A4.8,4.8,0,0,1,312,148Zm6.8-.5,1.8-.6.7-.3V135.8a17.1,17.1,0,0,0-3.6-.4,4.3,4.3,0,0,0-3.6,1.4,10,10,0,0,0-1,4.9,10.5,10.5,0,0,0,.8,4.6,3.1,3.1,0,0,0,2.9,1.5Z"/><path d="M328.9,148q-1.5-1.8-1.5-6c0-2.9.5-5.1,1.6-6.6a6.1,6.1,0,0,1,5.1-2.1q3.3,0,4.8,1.8c1.1,1.3,1.6,3.1,1.6,5.7v1.8H329.8a8.3,8.3,0,0,0,.5,3.1,2.3,2.3,0,0,0,1.4,1.6,6,6,0,0,0,2.9.5h2.2l2.2-.2h.9v1.9a35.8,35.8,0,0,1-5.9.5C331.7,149.9,329.9,149.3,328.9,148Zm9.2-7.3a7.5,7.5,0,0,0-.9-4.2,3.6,3.6,0,0,0-3.1-1.2,3.8,3.8,0,0,0-3.2,1.3,6.5,6.5,0,0,0-1.1,4.1Z"/><path d="M344.6,149.5l-1-.2v-2.1a40,40,0,0,0,5.5.6,5.5,5.5,0,0,0,2.9-.6,2.5,2.5,0,0,0,1-2,2.1,2.1,0,0,0-.5-1.5,2.5,2.5,0,0,0-1.2-.8l-2-.4h-.8a12.6,12.6,0,0,1-3-.8,3.7,3.7,0,0,1-1.7-1.2,4.9,4.9,0,0,1-.5-2.3,4.1,4.1,0,0,1,1.6-3.7,7.7,7.7,0,0,1,4.4-1.1,35.7,35.7,0,0,1,4.6.4l.9.2V136a33.6,33.6,0,0,0-5.4-.6,5.1,5.1,0,0,0-2.8.6,2,2,0,0,0-.9,1.8,1.7,1.7,0,0,0,.4,1.3,2.4,2.4,0,0,0,1.2.7l2,.4.8.2a12.3,12.3,0,0,1,3.1.8,3.5,3.5,0,0,1,1.6,1.3,4.3,4.3,0,0,1,.6,2.4,4.5,4.5,0,0,1-1.6,3.8,7.2,7.2,0,0,1-4.6,1.2A28.8,28.8,0,0,1,344.6,149.5Z"/><path d="M359.1,127.2h2.4V130h-2.4Zm0,6.4h2.4v16h-2.4Z"/><path d="M366.6,156.1a4.2,4.2,0,0,1-1.5-3.6,4,4,0,0,1,.3-1.7,3.7,3.7,0,0,1,.7-1.2l1.5-1.3a1.2,1.2,0,0,1-.6-.8,2.7,2.7,0,0,1-.3-1.2,4.4,4.4,0,0,1,.2-1l.9-1.7c-1.7-.7-2.5-2.3-2.5-4.8a5.1,5.1,0,0,1,1.5-4.1c1-1,2.5-1.4,4.5-1.4a13.5,13.5,0,0,1,3.3.4h4.7v2h-3a2.9,2.9,0,0,1,.8,1.3,5.6,5.6,0,0,1,.3,2,5.1,5.1,0,0,1-1.5,4.1,7.2,7.2,0,0,1-4.6,1.2l-1.7-.2a8.4,8.4,0,0,0-.4,1.2,3.1,3.1,0,0,0-.2.8,1.1,1.1,0,0,0,.7,1.1,5.3,5.3,0,0,0,2,.2H373a10.9,10.9,0,0,1,3.4.4,3.1,3.1,0,0,1,2,1.3,4.3,4.3,0,0,1,.7,2.8,4.7,4.7,0,0,1-1.7,4c-1.2.9-3.1,1.3-5.7,1.3S367.6,156.8,366.6,156.1Zm9-1.7a2.8,2.8,0,0,0,1.1-2.5,2.7,2.7,0,0,0-.4-1.5,1.8,1.8,0,0,0-1.2-.8h-2.4l-3.4-.2a11.6,11.6,0,0,0-1.5,1.3,3.5,3.5,0,0,0-.3,1.6,2.5,2.5,0,0,0,1,2.3,6.6,6.6,0,0,0,3.4.6A6.7,6.7,0,0,0,375.6,154.4Zm-1.5-12.9a3.8,3.8,0,0,0,.9-2.8,3.7,3.7,0,0,0-.9-2.7,3.8,3.8,0,0,0-2.7-.8,4,4,0,0,0-2.9.9,3.8,3.8,0,0,0-.8,2.7,4.1,4.1,0,0,0,.8,2.7,4.3,4.3,0,0,0,2.8.8A4.1,4.1,0,0,0,374.1,141.5Z"/><path d="M382.3,133.6h2.3v1.1a14,14,0,0,1,2.7-1.1,10.1,10.1,0,0,1,2.5-.3,5.4,5.4,0,0,1,3.1.8,3.8,3.8,0,0,1,1.6,2.4,18.6,18.6,0,0,1,.5,4.7v8.4h-2.4v-8.4a16.2,16.2,0,0,0-.3-3.5,2.5,2.5,0,0,0-.9-1.7,3.3,3.3,0,0,0-2.1-.6l-2.2.3-1.8.6-.6.3v13h-2.4Z"/><path d="M22.3,160.7h.9l2.3,11.4h.6l2.6-11.2h1l2.7,11.2H33l2.3-11.4h.9l-2.6,12.2H31.7L29.2,162l-2.4,10.9h-2Z"/><path d="M38.8,172.6a2.3,2.3,0,0,1-1.1-1.4,8.8,8.8,0,0,1-.3-2.6,9.1,9.1,0,0,1,.3-2.7,3,3,0,0,1,1.1-1.5A4.8,4.8,0,0,1,41,164a4.3,4.3,0,0,1,2.2.4,2.5,2.5,0,0,1,1.1,1.5,9.1,9.1,0,0,1,.3,2.7,8.8,8.8,0,0,1-.3,2.6,2,2,0,0,1-1.1,1.4,4.3,4.3,0,0,1-2.2.4A4.6,4.6,0,0,1,38.8,172.6Zm3.9-.7a1.5,1.5,0,0,0,.8-1.1,6.5,6.5,0,0,0,.2-2.2,7.2,7.2,0,0,0-.2-2.3,1.5,1.5,0,0,0-.8-1.2,3.7,3.7,0,0,0-1.7-.3,4,4,0,0,0-1.7.3,2.3,2.3,0,0,0-.8,1.2,12.1,12.1,0,0,0-.2,2.3,10.9,10.9,0,0,0,.2,2.2,1.9,1.9,0,0,0,.8,1.1,2.9,2.9,0,0,0,1.7.4A2.5,2.5,0,0,0,42.7,171.9Z"/><path d="M46.9,164.2h.9v1.2a8.1,8.1,0,0,1,3.3-1.4v.9a4.8,4.8,0,0,0-1.5.4l-1.3.7-.5.2v6.7h-.9Z"/><path d="M52.8,160.2h.8v7.6h1.6l2.8-3.6h1l-3.1,3.9,3.2,4.8h-.9l-3-4.4H53.6v4.4h-.8Z"/><path d="M61,172.8h-.5V172l2.9.3a2.8,2.8,0,0,0,1.8-.5,1.4,1.4,0,0,0,.6-1.3,1.5,1.5,0,0,0-.3-1,1.8,1.8,0,0,0-.7-.5l-1.2-.2h-.4l-1.8-.4a2.2,2.2,0,0,1-.9-.7,3.1,3.1,0,0,1-.2-1.1,2.1,2.1,0,0,1,.8-1.9,4.3,4.3,0,0,1,2.4-.6l2.4.2h.5v.7l-2.8-.3a4,4,0,0,0-1.8.4,1.4,1.4,0,0,0-.5,1.3,1.1,1.1,0,0,0,.2.8l.7.4,1.2.3h.4l1.8.4a2.2,2.2,0,0,1,.9.7,2.3,2.3,0,0,1,.3,1.3,2.5,2.5,0,0,1-.8,2,4.4,4.4,0,0,1-2.5.6A11.4,11.4,0,0,1,61,172.8Z"/><path d="M73.2,172.9h-.5V160.2h.9v4.5a5.9,5.9,0,0,1,2.9-.7,3.2,3.2,0,0,1,1.8.4,2.8,2.8,0,0,1,.9,1.4,9.3,9.3,0,0,1,.3,2.6,6.6,6.6,0,0,1-.4,2.8,2.1,2.1,0,0,1-1.2,1.4,6.4,6.4,0,0,1-2.7.4Zm4.2-1a2.3,2.3,0,0,0,1-1.2,13,13,0,0,0,.2-2.3,12.7,12.7,0,0,0-.2-2.2,1.8,1.8,0,0,0-.7-1.1,2.6,2.6,0,0,0-1.4-.3,8.3,8.3,0,0,0-2.7.6v6.8h1.9A4.1,4.1,0,0,0,77.4,171.9Z"/><path d="M82.2,172a5.7,5.7,0,0,1-.8-3.3,5.4,5.4,0,0,1,.9-3.5A3.2,3.2,0,0,1,85,164a2.8,2.8,0,0,1,2.5,1,4.6,4.6,0,0,1,.9,3.1v.8h-6a5.6,5.6,0,0,0,.3,2,1.3,1.3,0,0,0,.9,1,2.9,2.9,0,0,0,1.7.4H88v.7a18.4,18.4,0,0,1-3.1.2A3.4,3.4,0,0,1,82.2,172Zm5.3-3.9a4.5,4.5,0,0,0-.6-2.6,2.7,2.7,0,0,0-3.9.1,3.6,3.6,0,0,0-.7,2.5Z"/><path d="M90.7,172.8h-.5V172l2.9.3a2.6,2.6,0,0,0,1.8-.5,1.4,1.4,0,0,0,.6-1.3,1.5,1.5,0,0,0-.3-1,1.8,1.8,0,0,0-.7-.5l-1.2-.2H93l-1.8-.4c-.4-.2-.7-.4-.8-.7a1.8,1.8,0,0,1-.3-1.1,2.1,2.1,0,0,1,.8-1.9,4.3,4.3,0,0,1,2.4-.6l2.4.2h.5v.7l-2.9-.3a4,4,0,0,0-1.8.4,1.4,1.4,0,0,0-.5,1.3,1.9,1.9,0,0,0,.2.8l.7.4,1.3.3h.3l1.8.4a2.2,2.2,0,0,1,.9.7,2.3,2.3,0,0,1,.3,1.3,2.5,2.5,0,0,1-.8,2,4.4,4.4,0,0,1-2.5.6A11.9,11.9,0,0,1,90.7,172.8Z"/><path d="M100,172.8a2,2,0,0,1-.7-1,7.8,7.8,0,0,1-.2-1.9v-5H97.8v-.7h1.3v-2.8h.9v2.8h3v.7h-3v4.4a8.7,8.7,0,0,0,.1,1.8,1.2,1.2,0,0,0,.3.9,1.5,1.5,0,0,0,1,.3h1.7v.7l-1.9.2A2.5,2.5,0,0,1,100,172.8Z"/><path d="M107.7,164.2h.9l2.1,7.9h.2l2.4-7.8h.9l2.4,7.8h.3l2-7.9h.9l-2.3,8.7H116l-2.2-7.5-2.2,7.5H110Z"/><path d="M121.7,160.7h.8v1.1h-.8Zm0,3.5h.8v8.7h-.8Z"/><path d="M126.3,172.8a2,2,0,0,1-.7-1,7.8,7.8,0,0,1-.2-1.9v-5h-1.3v-.7h1.3v-2.8h.9v2.8h3v.7h-3v6.2a1.9,1.9,0,0,0,.4.9,1.5,1.5,0,0,0,1,.3h1.7v.7l-1.9.2A2.5,2.5,0,0,1,126.3,172.8Z"/><path d="M130.9,160.2h.9v4.5a6.6,6.6,0,0,1,3-.7,2.9,2.9,0,0,1,1.7.4,2.5,2.5,0,0,1,.9,1.3,16.1,16.1,0,0,1,.2,2.6v4.6h-.9v-4.5a14.2,14.2,0,0,0-.1-2.3,1.4,1.4,0,0,0-.6-1,2.6,2.6,0,0,0-1.4-.3,5.2,5.2,0,0,0-2.4.5h-.4v7.5h-.9Z"/><path d="M144.2,172.8h-.5V172l3,.3a3,3,0,0,0,1.8-.5,1.4,1.4,0,0,0,.6-1.3,1.5,1.5,0,0,0-.3-1,1.8,1.8,0,0,0-.7-.5l-1.3-.2h-.4l-1.7-.4a2.2,2.2,0,0,1-.9-.7,1.8,1.8,0,0,1-.2-1.1c0-.9.2-1.6.8-1.9a3.8,3.8,0,0,1,2.4-.6l2.4.2h.5v.7l-2.9-.3a3.2,3.2,0,0,0-1.7.4,1.5,1.5,0,0,0-.6,1.3,1.1,1.1,0,0,0,.3.8l.7.4,1.2.3h.4l1.7.4a2.2,2.2,0,0,1,.9.7,1.7,1.7,0,0,1,.4,1.3,2.3,2.3,0,0,1-.9,2,4,4,0,0,1-2.5.6A10.6,10.6,0,0,1,144.2,172.8Z"/><path d="M152.1,164.2h.8v.6a6,6,0,0,1,2.9-.8,2.4,2.4,0,0,1,2.2.9l1.5-.6a6.3,6.3,0,0,1,1.9-.3,2.4,2.4,0,0,1,1.6.4,2,2,0,0,1,.8,1.4,8.1,8.1,0,0,1,.3,2.5v4.6h-.9v-4.6a11.6,11.6,0,0,0-.1-2.1,1.7,1.7,0,0,0-.6-1.1,2.3,2.3,0,0,0-1.3-.3,3.9,3.9,0,0,0-1.5.2,2.3,2.3,0,0,0-1,.4h-.4c.2.2.3,1.1.3,2.8v4.6h-.9v-4.5a12.8,12.8,0,0,0-.1-2.2,1.7,1.7,0,0,0-.6-1.1,2.1,2.1,0,0,0-1.2-.3h-1.4a3.8,3.8,0,0,0-1.1.5H153v7.4h-.9Z"/><path d="M166.7,172.4a2.9,2.9,0,0,1-.6-1.9,2.4,2.4,0,0,1,.6-1.8,3.1,3.1,0,0,1,1.9-.8l3.1-.3v-.8a2.1,2.1,0,0,0-.4-1.5,1.3,1.3,0,0,0-1.2-.5h-1.4l-2.1.2v-.7l3.3-.3a2.4,2.4,0,0,1,2,.7,2.5,2.5,0,0,1,.7,2.1v4.8c0,.2.1.3.3.5l.9.2v.7a2.3,2.3,0,0,1-1.2-.2,1.3,1.3,0,0,1-.7-.5,8.3,8.3,0,0,1-3.4.7A2.4,2.4,0,0,1,166.7,172.4Zm4.6-.6.4-.2v-3.3l-3,.3a1.7,1.7,0,0,0-1.3.5,1.7,1.7,0,0,0-.4,1.3c0,1.3.5,1.9,1.5,1.9A9.2,9.2,0,0,0,171.3,171.8Z"/><path d="M175.4,160.2h.9v12.7h-.9Z"/><path d="M179.2,160.2h.8v12.7h-.8Z"/><path d="M186.8,172.8h-.5V172l3,.3a3,3,0,0,0,1.8-.5,1.4,1.4,0,0,0,.6-1.3,1.5,1.5,0,0,0-.3-1,1.8,1.8,0,0,0-.7-.5l-1.3-.2H189l-1.7-.4a2.2,2.2,0,0,1-.9-.7,1.8,1.8,0,0,1-.2-1.1c0-.9.2-1.6.8-1.9a3.8,3.8,0,0,1,2.4-.6l2.4.2h.5v.7l-2.8-.3a3.4,3.4,0,0,0-1.8.4,1.5,1.5,0,0,0-.6,1.3,1.1,1.1,0,0,0,.3.8l.7.4,1.2.3h.4l1.8.4a2.2,2.2,0,0,1,.9.7,2.3,2.3,0,0,1,.3,1.3,2.5,2.5,0,0,1-.8,2,4.5,4.5,0,0,1-2.6.6A10.6,10.6,0,0,1,186.8,172.8Z"/><path d="M194.7,160.7h.8v1.1h-.8Zm0,3.5h.8v8.7h-.8Z"/><path d="M197.6,172.1l5.4-7.2h-5.4v-.7h6.5v.7l-5.4,7.2h5.4v.8h-6.5Z"/><path d="M206.5,172a5.7,5.7,0,0,1-.8-3.3,5.4,5.4,0,0,1,.9-3.5,3.2,3.2,0,0,1,2.7-1.2,2.9,2.9,0,0,1,2.5,1,4.6,4.6,0,0,1,.8,3.1v.8h-6a10.3,10.3,0,0,0,.2,2,1.8,1.8,0,0,0,.9,1,3.2,3.2,0,0,0,1.8.4h2.8v.7a17.3,17.3,0,0,1-3,.2A3.3,3.3,0,0,1,206.5,172Zm5.3-3.9a4.5,4.5,0,0,0-.6-2.6,2.7,2.7,0,0,0-3.9.1,3.6,3.6,0,0,0-.7,2.5Z"/><path d="M220.1,172.8a1.5,1.5,0,0,1-.7-1,7.8,7.8,0,0,1-.2-1.9v-5h-1.3v-.7h1.3v-2.8h.8v2.8h3.1v.7H220v4.4c0,.8.1,1.4.1,1.8a1.9,1.9,0,0,0,.4.9,1.3,1.3,0,0,0,1,.3h1.7v.7l-1.8.2A2.3,2.3,0,0,1,220.1,172.8Z"/><path d="M225.1,172a5.8,5.8,0,0,1-.7-3.3,5.5,5.5,0,0,1,.8-3.5,3.2,3.2,0,0,1,2.7-1.2,3.1,3.1,0,0,1,2.6,1,5.2,5.2,0,0,1,.8,3.1v.8h-6.1a5.6,5.6,0,0,0,.3,2,1.3,1.3,0,0,0,.9,1,2.9,2.9,0,0,0,1.7.4h2.8v.7a18.4,18.4,0,0,1-3.1.2A3.4,3.4,0,0,1,225.1,172Zm5.3-3.9a4.5,4.5,0,0,0-.6-2.6,2.3,2.3,0,0,0-1.9-.8,2.4,2.4,0,0,0-2,.9,4.1,4.1,0,0,0-.7,2.5Z"/><path d="M235.4,168.5l-2.9-4.3h1l2.4,3.7,2.4-3.7h1l-2.9,4.3,2.9,4.4h-1l-2.4-3.7-2.4,3.7h-1Z"/><path d="M242.2,172.8a1.5,1.5,0,0,1-.7-1,7.8,7.8,0,0,1-.2-1.9v-5H240v-.7h1.3v-2.8h.8v2.8h3.1v.7h-3.1v4.4c0,.8.1,1.4.1,1.8a1.9,1.9,0,0,0,.4.9,1.3,1.3,0,0,0,1,.3h1.7v.7l-1.8.2A2.3,2.3,0,0,1,242.2,172.8Z"/><path d="M250.7,172.4a2.9,2.9,0,0,1-.6-1.9,2.4,2.4,0,0,1,.6-1.8,3.1,3.1,0,0,1,1.9-.8l3.1-.3v-.8a2.1,2.1,0,0,0-.4-1.5,1.3,1.3,0,0,0-1.2-.5h-1.4l-2.1.2v-.7l3.3-.3a2.4,2.4,0,0,1,2,.7,2.5,2.5,0,0,1,.7,2.1v4.8c0,.2.1.3.3.5l.9.2v.7a2.2,2.2,0,0,1-1.1-.2l-.8-.5a7.5,7.5,0,0,1-3.3.7A2.4,2.4,0,0,1,250.7,172.4Zm4.6-.6.4-.2v-3.3l-3,.3a1.7,1.7,0,0,0-1.3.5,1.7,1.7,0,0,0-.4,1.3c0,1.3.5,1.9,1.5,1.9A9.7,9.7,0,0,0,255.3,171.8Z"/><path d="M259.3,164.2h.9v.6l1.5-.6,1.5-.2a2.7,2.7,0,0,1,1.7.4,2.5,2.5,0,0,1,.9,1.3,16.1,16.1,0,0,1,.2,2.6v4.6h-.8v-4.6a10.6,10.6,0,0,0-.2-2.1,1.7,1.7,0,0,0-.6-1.1,2.1,2.1,0,0,0-1.2-.3,3.9,3.9,0,0,0-1.5.2,2.3,2.3,0,0,0-1.1.4h-.4v7.4h-.9Z"/><path d="M268.9,172a5.8,5.8,0,0,1-.7-3.3,7,7,0,0,1,.4-2.7,2.3,2.3,0,0,1,1.2-1.5,4.5,4.5,0,0,1,2.2-.5l2.1.2v-4h.9v12.7h-.9v-.7a6,6,0,0,1-2.9.8A2.5,2.5,0,0,1,268.9,172Zm3.7.1,1.1-.4.4-.2V165l-2.1-.3a4.4,4.4,0,0,0-1.8.4,2,2,0,0,0-.8,1.3,6.1,6.1,0,0,0-.3,2.2,6.2,6.2,0,0,0,.5,2.7,1.7,1.7,0,0,0,1.7,1Z"/><path d="M281.5,164.2h.8v.7a5.5,5.5,0,0,1,2.9-.9,2.4,2.4,0,0,1,2.3,1,6.2,6.2,0,0,1,.7,3.4,10.1,10.1,0,0,1-.3,2.7,4.4,4.4,0,0,1-1.2,1.5,5,5,0,0,1-2.3.4,7.5,7.5,0,0,1-2.1-.2v4h-.8Zm5.2,7.2a4.6,4.6,0,0,0,.7-2.9,5.5,5.5,0,0,0-.6-2.9,1.8,1.8,0,0,0-1.6-.8,3.2,3.2,0,0,0-1.3.2,3.4,3.4,0,0,0-1.2.4l-.4.2v6.5l2.2.2A2.4,2.4,0,0,0,286.7,171.4Z"/><path d="M290.6,160.2h.8v4.5a6.6,6.6,0,0,1,3-.7,2.9,2.9,0,0,1,1.7.4,2.5,2.5,0,0,1,.9,1.3,9.4,9.4,0,0,1,.2,2.6v4.6h-.8v-4.5a12.1,12.1,0,0,0-.2-2.3,1.4,1.4,0,0,0-.6-1,2.6,2.6,0,0,0-1.4-.3,5.2,5.2,0,0,0-2.4.5h-.4v7.5h-.8Z"/><path d="M300.9,172.6a2,2,0,0,1-1.1-1.4,8.3,8.3,0,0,1-.4-2.6,8.5,8.5,0,0,1,.4-2.7,2.5,2.5,0,0,1,1.1-1.5,4.3,4.3,0,0,1,2.2-.4,4.1,4.1,0,0,1,2.1.4,2.2,2.2,0,0,1,1.1,1.5,6.4,6.4,0,0,1,.4,2.7,8.8,8.8,0,0,1-.3,2.6,2.3,2.3,0,0,1-1.1,1.4,4.6,4.6,0,0,1-2.2.4A4.3,4.3,0,0,1,300.9,172.6Zm3.9-.7a1.9,1.9,0,0,0,.8-1.1,10.9,10.9,0,0,0,.2-2.2,12.1,12.1,0,0,0-.2-2.3,2.3,2.3,0,0,0-.8-1.2,5,5,0,0,0-3.4,0,1.5,1.5,0,0,0-.8,1.2,7.2,7.2,0,0,0-.2,2.3,6.5,6.5,0,0,0,.2,2.2,1.5,1.5,0,0,0,.8,1.1,2.5,2.5,0,0,0,1.7.4A2.7,2.7,0,0,0,304.8,171.9Z"/><path d="M309,164.2h.8v.6l1.6-.6,1.5-.2a2.9,2.9,0,0,1,1.7.4,2,2,0,0,1,.8,1.3,8.8,8.8,0,0,1,.3,2.6v4.6h-.9v-4.6a12.2,12.2,0,0,0-.1-2.1,3.6,3.6,0,0,0-.6-1.1,2.3,2.3,0,0,0-1.3-.3,3.6,3.6,0,0,0-1.4.2,3.4,3.4,0,0,0-1.2.4h-.4v7.4H309Z"/><path d="M318.7,172a5,5,0,0,1-.8-3.3,6.2,6.2,0,0,1,.8-3.5,3.2,3.2,0,0,1,2.8-1.2,3,3,0,0,1,2.5,1,5.2,5.2,0,0,1,.8,3.1v.8h-6.1a5.6,5.6,0,0,0,.3,2,1.8,1.8,0,0,0,.9,1,3,3,0,0,0,1.8.4h2.8v.7a17.8,17.8,0,0,1-3.1.2A3.1,3.1,0,0,1,318.7,172Zm5.2-3.9a4.5,4.5,0,0,0-.6-2.6,2.2,2.2,0,0,0-1.8-.8,2.6,2.6,0,0,0-2.1.9,4.1,4.1,0,0,0-.7,2.5Z"/><path d="M330.8,164.2h.9v1.2a7.9,7.9,0,0,1,3.4-1.4v.9a5.3,5.3,0,0,0-1.6.4l-1.3.7-.5.2v6.7h-.9Z"/><path d="M336.9,172a5.7,5.7,0,0,1-.8-3.3,5.4,5.4,0,0,1,.9-3.5,2.9,2.9,0,0,1,2.7-1.2,3,3,0,0,1,2.5,1,5.2,5.2,0,0,1,.8,3.1v.8h-6a5.9,5.9,0,0,0,.2,2,1.8,1.8,0,0,0,.9,1,3,3,0,0,0,1.8.4h2.8v.7a17.8,17.8,0,0,1-3.1.2A3.1,3.1,0,0,1,336.9,172Zm5.2-3.9a5.7,5.7,0,0,0-.5-2.6,2.4,2.4,0,0,0-1.9-.8,2.6,2.6,0,0,0-2.1.9,5,5,0,0,0-.7,2.5Z"/><path d="M345.3,172.4a2.9,2.9,0,0,1-.6-1.9,2.4,2.4,0,0,1,.6-1.8,3.1,3.1,0,0,1,1.9-.8l3.1-.3v-.8a2.7,2.7,0,0,0-.4-1.5,1.3,1.3,0,0,0-1.2-.5h-1.4l-2.1.2v-.7l3.4-.3a2.4,2.4,0,0,1,2,.7,2.9,2.9,0,0,1,.6,2.1v4.8l.4.5.9.2v.7a2,2,0,0,1-1.1-.2l-.8-.5a8,8,0,0,1-3.4.7A2.4,2.4,0,0,1,345.3,172.4Zm4.5-.6.5-.2v-3.3l-3,.3a1.6,1.6,0,0,0-1.3.5,1.7,1.7,0,0,0-.4,1.3c0,1.3.5,1.9,1.5,1.9A8.6,8.6,0,0,0,349.8,171.8Z"/><path d="M354.2,172a6.8,6.8,0,0,1-.7-3.3,7,7,0,0,1,.4-2.7,2.3,2.3,0,0,1,1.2-1.5,4.8,4.8,0,0,1,2.2-.5l2.2.2v-4h.8v12.7h-.9v-.7a5.7,5.7,0,0,1-2.9.8A2.6,2.6,0,0,1,354.2,172Zm3.8.1,1.1-.4.4-.2V165l-2.2-.3a3.9,3.9,0,0,0-1.7.4,2.5,2.5,0,0,0-.9,1.3,6.1,6.1,0,0,0-.3,2.2,6.2,6.2,0,0,0,.5,2.7,1.8,1.8,0,0,0,1.7,1Z"/><path d="M363,160.7h.8v1.1H363Zm0,3.5h.8v8.7H363Z"/><path d="M366.5,164.2h.8v.6l1.6-.6,1.5-.2a2.9,2.9,0,0,1,1.7.4,2,2,0,0,1,.8,1.3,9.4,9.4,0,0,1,.2,2.6v4.6h-.8v-4.6a6.2,6.2,0,0,0-.2-2.1,1.4,1.4,0,0,0-1.8-1.4,7.5,7.5,0,0,0-2.6.6h-.4v7.4h-.8Z"/><path d="M376.7,176.7a1.2,1.2,0,0,1-1-.8,3.3,3.3,0,0,1-.3-1.5,3.1,3.1,0,0,1,.1-1,2.1,2.1,0,0,1,.4-.6l.9-.7a1.1,1.1,0,0,1-.3-.5,1.3,1.3,0,0,1-.1-.6.9.9,0,0,1,.1-.5,3.1,3.1,0,0,1,.4-.9,2.7,2.7,0,0,1-1.4-2.7,2.9,2.9,0,0,1,.7-2.2,3.3,3.3,0,0,1,2.4-.7l1.8.2h2.5v.8h-1.8a2.8,2.8,0,0,1,.6,2,3,3,0,0,1-.7,2.3,4.2,4.2,0,0,1-2.5.6h-.9c0,.1-.1.1-.1.2v.2c0,.2-.1.3-.1.5s-.1.2-.1.4a.5.5,0,0,0,.4.6l1.1.2h2.6a2.1,2.1,0,0,1,1.4,2.3,2.3,2.3,0,0,1-.9,2.1,4.7,4.7,0,0,1-3,.7A5.8,5.8,0,0,1,376.7,176.7Zm3.9-.6a2.2,2.2,0,0,0,.9-.7,2.6,2.6,0,0,0,.1-2.2c-.1-.3-.3-.4-.7-.5l-1.5-.2h-2l-1,.8a2.5,2.5,0,0,0-.2,1,2.1,2.1,0,0,0,.3,1.2,1,1,0,0,0,.8.6l1.6.2Zm-.3-7.5c.4-.3.5-.9.5-1.7s-.1-1.4-.5-1.7a2.5,2.5,0,0,0-1.7-.5,3,3,0,0,0-1.8.5,3.1,3.1,0,0,0,0,3.4,3,3,0,0,0,1.8.5A2.5,2.5,0,0,0,380.3,168.6Z"/><path d="M388.8,172a5.7,5.7,0,0,1-.8-3.3,5.4,5.4,0,0,1,.9-3.5,3.2,3.2,0,0,1,2.7-1.2,2.9,2.9,0,0,1,2.5,1,4.6,4.6,0,0,1,.8,3.1v.8h-6a10.3,10.3,0,0,0,.2,2,1.8,1.8,0,0,0,.9,1,3.2,3.2,0,0,0,1.8.4h2.8v.7a17.3,17.3,0,0,1-3,.2A3.3,3.3,0,0,1,388.8,172Zm5.3-3.9a4.5,4.5,0,0,0-.6-2.6,2.7,2.7,0,0,0-3.9.1,3.6,3.6,0,0,0-.7,2.5Z"/><path d="M399,168.5l-2.9-4.3h1l2.5,3.7,2.4-3.7h1l-2.9,4.3,2.9,4.4h-1l-2.4-3.7-2.5,3.7h-1Z"/><path d="M404.7,164.2h.9v.7a5.2,5.2,0,0,1,2.9-.9,2.5,2.5,0,0,1,2.3,1,6.2,6.2,0,0,1,.7,3.4,10.1,10.1,0,0,1-.3,2.7,3.7,3.7,0,0,1-1.3,1.5,4.6,4.6,0,0,1-2.2.4,7.5,7.5,0,0,1-2.1-.2v4h-.9Zm5.3,7.2a5.5,5.5,0,0,0,.6-2.9,5.6,5.6,0,0,0-.5-2.9,1.9,1.9,0,0,0-1.6-.8,3,3,0,0,0-1.3.2,3.4,3.4,0,0,0-1.2.4l-.4.2v6.5l2.2.2A2.5,2.5,0,0,0,410,171.4Z"/><path d="M414.3,172a5,5,0,0,1-.8-3.3,6.2,6.2,0,0,1,.8-3.5A3.2,3.2,0,0,1,417,164a3.1,3.1,0,0,1,2.6,1,5.2,5.2,0,0,1,.8,3.1v.8h-6.1a5.6,5.6,0,0,0,.3,2,1.8,1.8,0,0,0,.9,1,3,3,0,0,0,1.8.4h2.8v.7a17.8,17.8,0,0,1-3.1.2A3.1,3.1,0,0,1,414.3,172Zm5.2-3.9a4.5,4.5,0,0,0-.6-2.6,2.3,2.3,0,0,0-1.9-.8,2.5,2.5,0,0,0-2,.9,4.1,4.1,0,0,0-.7,2.5Z"/><path d="M422.6,164.2h.9v1.2a7.5,7.5,0,0,1,3.3-1.4v.9a5.3,5.3,0,0,0-1.6.4l-1.3.7-.4.2v6.7h-.9Z"/><path d="M428.4,160.7h.9v1.1h-.9Zm0,3.5h.9v8.7h-.9Z"/><path d="M432.3,172a5,5,0,0,1-.8-3.3,6.2,6.2,0,0,1,.8-3.5,3.2,3.2,0,0,1,2.8-1.2,3,3,0,0,1,2.5,1,5.2,5.2,0,0,1,.8,3.1v.8h-6a4.1,4.1,0,0,0,.2,2,1.8,1.8,0,0,0,.9,1,3,3,0,0,0,1.8.4h2.8v.7a17.8,17.8,0,0,1-3.1.2A3.1,3.1,0,0,1,432.3,172Zm5.2-3.9a4.5,4.5,0,0,0-.6-2.6,2.2,2.2,0,0,0-1.8-.8,2.6,2.6,0,0,0-2.1.9,4.1,4.1,0,0,0-.7,2.5Z"/><path d="M440.6,164.2h.9v.6l1.5-.6,1.5-.2a2.9,2.9,0,0,1,1.7.4,2.5,2.5,0,0,1,.9,1.3,16.1,16.1,0,0,1,.2,2.6v4.6h-.9v-4.6a12.2,12.2,0,0,0-.1-2.1,1.7,1.7,0,0,0-.6-1.1,2.1,2.1,0,0,0-1.2-.3,3.9,3.9,0,0,0-1.5.2,2.3,2.3,0,0,0-1.1.4h-.4v7.4h-.9Z"/><path d="M450.9,172.6a2.5,2.5,0,0,1-1.1-1.5,8.8,8.8,0,0,1-.3-2.6,13.8,13.8,0,0,1,.2-2.2,2.6,2.6,0,0,1,.9-1.6,2.9,2.9,0,0,1,2.2-.7h1l1.5.2v.7h-2.2a3.5,3.5,0,0,0-1.6.3,1.5,1.5,0,0,0-.8,1.2,6.7,6.7,0,0,0-.3,2.3,12.7,12.7,0,0,0,.2,2.2,2,2,0,0,0,.9,1.1,3.9,3.9,0,0,0,1.7.4l2.1-.2v.7a11.1,11.1,0,0,1-2.3.2A4.1,4.1,0,0,1,450.9,172.6Z"/><path d="M457.7,172a5.7,5.7,0,0,1-.8-3.3,5.4,5.4,0,0,1,.9-3.5,3.2,3.2,0,0,1,2.7-1.2,2.9,2.9,0,0,1,2.5,1,4.6,4.6,0,0,1,.8,3.1v.8h-6a10.3,10.3,0,0,0,.2,2,1.8,1.8,0,0,0,.9,1,3.2,3.2,0,0,0,1.8.4h2.8v.7a17.3,17.3,0,0,1-3,.2A3.3,3.3,0,0,1,457.7,172Zm5.3-3.9a4.5,4.5,0,0,0-.6-2.6,2.7,2.7,0,0,0-3.9.1,3.6,3.6,0,0,0-.7,2.5Z"/></svg>