<svg xmlns="http://www.w3.org/2000/svg" viewBox="0 0 512 512"><defs><style>.a{fill:#6d44bc;}.b{fill:#eab611;}</style></defs><circle class="a" cx="255.8" cy="255.3" r="246.3"/><circle class="b" cx="255.8" cy="255.3" r="223.2"/><path d="M409.3,251.3H398.6c-2-75.7-63.2-136.9-138.9-138.9V101.7a4,4,0,1,0-7.9,0v10.7c-75.7,2-136.9,63.2-138.9,138.9H102.2a4,4,0,1,0,0,7.9h10.7c2,75.7,63.2,136.9,138.9,138.9v10.7a4,4,0,0,0,7.9,0V398.1c75.7-2,136.9-63.2,138.9-138.9h10.7a4,4,0,0,0,0-7.9Zm-149.6,139V379.9a4,4,0,0,0-7.9,0v10.4A135.3,135.3,0,0,1,120.7,259.2h10.4a4,4,0,0,0,0-7.9H120.7A135.3,135.3,0,0,1,251.8,120.2v10.4a4,4,0,0,0,7.9,0V120.2A135.3,135.3,0,0,1,390.8,251.3H380.4a4,4,0,0,0,0,7.9h10.4A135.3,135.3,0,0,1,259.7,390.3Z"/><path d="M255.7,163.3a65.6,65.6,0,0,0-65.6,65.6c0,56.6,60.4,114.8,62.9,117.3a4.1,4.1,0,0,0,2.7,1,3.9,3.9,0,0,0,2.9-1.1c2.5-2.6,62.8-64.5,62.8-117.2A65.7,65.7,0,0,0,255.7,163.3Zm0,174.4C243.8,325.4,198,275.5,198,228.9a57.8,57.8,0,1,1,115.5,0C313.5,272.2,267.5,324.9,255.7,337.7Z"/><path d="M255.7,200.8A26.2,26.2,0,1,0,281.9,227,26.2,26.2,0,0,0,255.7,200.8Zm0,44.5A18.3,18.3,0,1,1,274,227,18.3,18.3,0,0,1,255.7,245.3Z"/></svg>