<svg xmlns="http://www.w3.org/2000/svg" viewBox="0 0 400 107.5"><defs><style>.a{fill:#6d44bc;}.b{fill:#eab611;}</style></defs><path d="M136.1,70.5v33.9H112.6V3h35.7a58.3,58.3,0,0,1,18.4,2.6,35.2,35.2,0,0,1,12.7,7,26.6,26.6,0,0,1,7.3,10.5,35.1,35.1,0,0,1,2.4,13.1,37.3,37.3,0,0,1-2.5,13.9,27.8,27.8,0,0,1-7.4,10.8A35.4,35.4,0,0,1,166.5,68a58,58,0,0,1-18.2,2.5Zm0-17.7h12.2c6.1,0,10.5-1.5,13.2-4.4s4.1-7,4.1-12.2a18.3,18.3,0,0,0-1.1-6.4,13.2,13.2,0,0,0-3.1-4.9,14.2,14.2,0,0,0-5.4-3.1,21.8,21.8,0,0,0-7.7-1.2H136.1Z"/><path d="M398.1,53.6a53,53,0,0,1-3.8,20.2,46.8,46.8,0,0,1-10.7,16.1,47.6,47.6,0,0,1-16.5,10.5,59.2,59.2,0,0,1-21.5,3.8H306.3V3h39.3a57.1,57.1,0,0,1,21.5,3.9,47.6,47.6,0,0,1,16.5,10.5,46.4,46.4,0,0,1,10.7,16A53.4,53.4,0,0,1,398.1,53.6Zm-24,0a43.5,43.5,0,0,0-2-13.5,27.6,27.6,0,0,0-5.6-10.3,23.9,23.9,0,0,0-8.9-6.4,30.2,30.2,0,0,0-12-2.3H329.9V86.2h15.7a30.2,30.2,0,0,0,12-2.3,24.2,24.2,0,0,0,8.9-6.5,28,28,0,0,0,5.6-10.2A44.2,44.2,0,0,0,374.1,53.6Z"/><circle class="a" cx="247.3" cy="53.8" r="42.7"/><path class="b" d="M247,3.4a50.4,50.4,0,1,0,50.5,50.4A50.4,50.4,0,0,0,247,3.4Zm0,82.9a32.5,32.5,0,1,1,32.5-32.5A32.4,32.4,0,0,1,247,86.3Z"/><circle class="b" cx="53.5" cy="57" r="42.7"/><path class="a" d="M53.5,3.4A50.5,50.5,0,1,0,104,53.8,50.4,50.4,0,0,0,53.5,3.4Zm0,82.9A32.5,32.5,0,1,1,86,53.8,32.4,32.4,0,0,1,53.5,86.3Z"/></svg>