<svg xmlns="http://www.w3.org/2000/svg" viewBox="0 0 697.5 304.9"><defs><style>.a{fill:#6d44bc;}.b{fill:#eab611;}</style></defs><path d="M255.5,139.8V185H224.2V49.8h47.7a80,80,0,0,1,24.5,3.4,48.8,48.8,0,0,1,16.9,9.3,37.1,37.1,0,0,1,9.8,14.1A46.8,46.8,0,0,1,326.2,94a53.4,53.4,0,0,1-3.2,18.6A37.1,37.1,0,0,1,313,127a43.8,43.8,0,0,1-16.9,9.4c-6.8,2.3-14.9,3.4-24.2,3.4Zm0-23.6h16.4c8.1,0,14-2,17.6-5.9s5.4-9.3,5.4-16.3a24.7,24.7,0,0,0-1.4-8.4,18.7,18.7,0,0,0-4.2-6.6,19.6,19.6,0,0,0-7.2-4.2,31.3,31.3,0,0,0-10.2-1.5H255.5Z"/><path d="M605.1,117.3a70.5,70.5,0,0,1-5.1,27,62.1,62.1,0,0,1-36.3,35.4,77.4,77.4,0,0,1-28.6,5.1H482.6V49.8h52.5a77.4,77.4,0,0,1,28.6,5.1A65.4,65.4,0,0,1,585.8,69,61.7,61.7,0,0,1,600,90.4,69.7,69.7,0,0,1,605.1,117.3Zm-32.1,0a56.9,56.9,0,0,0-2.6-18.1A39.2,39.2,0,0,0,563,85.5a33.1,33.1,0,0,0-11.9-8.6,40.7,40.7,0,0,0-16-3h-21v86.8h21a40.7,40.7,0,0,0,16-3,33.1,33.1,0,0,0,11.9-8.6,39.2,39.2,0,0,0,7.4-13.7A56.9,56.9,0,0,0,573,117.3Z"/><circle class="a" cx="403.9" cy="117.5" r="57"/><path class="b" d="M403.5,50.3a67.3,67.3,0,1,0,67.3,67.3A67.2,67.2,0,0,0,403.5,50.3Zm0,110.6a43.4,43.4,0,1,1,43.4-43.3A43.3,43.3,0,0,1,403.5,160.9Z"/><circle class="b" cx="145.4" cy="121.9" r="57"/><path class="a" d="M145.4,50.3a67.3,67.3,0,1,0,67.3,67.3A67.3,67.3,0,0,0,145.4,50.3Zm0,110.6a43.3,43.3,0,1,1,43.3-43.3A43.3,43.3,0,0,1,145.4,160.9Z"/><path d="M97.6,211.4v29.9H93.5V228.1h-14v13.2H75.3V211.4h4.2v13.1h14V211.4Z"/><path d="M108.9,215.1v9.3h11.7V228H108.9v9.7h14.3v3.6H104.7V211.4h18.5v3.7Z"/><path d="M144.2,234.3h-12l-1.9,7h-4.1l7.7-29.9h8.6l7.7,29.9h-4.1ZM133,230.6h10.4l-4.1-15.7h-2.2Z"/><path d="M154.8,211.4H166c3.3,0,5.8.8,7.4,2.3s2.4,3.9,2.4,7-1.7,7.3-5.1,8.7l5.3,11.9h-4.6l-4.8-11h-7.7v11h-4.1ZM166,226.7a5.7,5.7,0,0,0,4.2-1.5,6.4,6.4,0,0,0,1.4-4.4,6.2,6.2,0,0,0-1.4-4.3A5.7,5.7,0,0,0,166,215h-7.1v11.7Z"/><path d="M220.8,211.4v29.9h-4.2V215.9H216l-7.8,24.2h-4.4l-7.9-24.2h-.6v25.4h-4.1V211.4h7.3l7.5,24.4,7.5-24.4Z"/><path d="M231.6,240.2a9,9,0,0,1-3.8-4.9,35.8,35.8,0,0,1,0-17.6,9.6,9.6,0,0,1,3.8-5.1,13.3,13.3,0,0,1,7.1-1.7,12.9,12.9,0,0,1,7,1.7,9.1,9.1,0,0,1,3.8,5.1,26.7,26.7,0,0,1,1.2,8.8,26.3,26.3,0,0,1-1.2,8.8,8.9,8.9,0,0,1-3.7,4.9,16.6,16.6,0,0,1-14.2,0Zm11.8-3.2a6.6,6.6,0,0,0,2.3-3.7,28.9,28.9,0,0,0,.7-6.8,31.9,31.9,0,0,0-.7-6.9,7,7,0,0,0-2.4-3.8,7.8,7.8,0,0,0-4.6-1.2,8.2,8.2,0,0,0-4.7,1.2,6.3,6.3,0,0,0-2.3,3.8,25.6,25.6,0,0,0-.7,6.9,30,30,0,0,0,.6,6.7,7.1,7.1,0,0,0,2.4,3.7,7.8,7.8,0,0,0,4.7,1.2A8.8,8.8,0,0,0,243.4,237Z"/><path d="M256.5,211.4h11.3c3.3,0,5.7.8,7.4,2.3s2.4,3.9,2.4,7-1.7,7.3-5.1,8.7l5.3,11.9h-4.6l-4.8-11h-7.7v11h-4.2Zm11.3,15.3a5.7,5.7,0,0,0,4.2-1.5,6.4,6.4,0,0,0,1.4-4.4,6.2,6.2,0,0,0-1.4-4.3,5.7,5.7,0,0,0-4.2-1.5h-7.1v11.7Z"/><path d="M287.5,215.1v9.3h11.8V228H287.5v9.7h14.4v3.6H283.4V211.4h18.5v3.7Z"/><path d="M322.8,215.1H314v-3.7h21.7v3.7H327v26.2h-4.2Z"/><path d="M342.8,240.2a9.5,9.5,0,0,1-3.8-4.9,35.8,35.8,0,0,1,0-17.6,9.6,9.6,0,0,1,3.8-5.1,13.3,13.3,0,0,1,7.1-1.7,12.9,12.9,0,0,1,7,1.7,8.7,8.7,0,0,1,3.8,5.1,26.7,26.7,0,0,1,1.2,8.8,26.3,26.3,0,0,1-1.2,8.8,8.9,8.9,0,0,1-3.7,4.9,16.6,16.6,0,0,1-14.2,0Zm11.8-3.2a6.1,6.1,0,0,0,2.3-3.7,24.4,24.4,0,0,0,.7-6.8,31.9,31.9,0,0,0-.7-6.9,7,7,0,0,0-2.4-3.8,7.6,7.6,0,0,0-4.6-1.2,8.2,8.2,0,0,0-4.7,1.2,6.3,6.3,0,0,0-2.3,3.8,25.6,25.6,0,0,0-.7,6.9,24.5,24.5,0,0,0,.7,6.7,6.4,6.4,0,0,0,2.3,3.7,8,8,0,0,0,4.7,1.2A8.8,8.8,0,0,0,354.6,237Z"/><path d="M381.5,215.1v9.3h11.7V228H381.5v9.7h14.3v3.6H377.3V211.4h18.5v3.7Z"/><path d="M416.8,234.3H404.7l-1.8,7h-4.2l7.8-29.9h8.6l7.7,29.9h-4.1Zm-11.2-3.7H416l-4.1-15.7h-2.2Z"/><path d="M427.4,211.4h11.2c3.3,0,5.7.8,7.4,2.3s2.4,3.9,2.4,7-1.7,7.3-5.1,8.7l5.3,11.9H444l-4.8-11h-7.7v11h-4.1Zm11.2,15.3a5.7,5.7,0,0,0,4.2-1.5,6.4,6.4,0,0,0,1.4-4.4,6.2,6.2,0,0,0-1.4-4.3,5.7,5.7,0,0,0-4.2-1.5h-7.1v11.7Z"/><path d="M476.7,211.4v29.9h-7.3L459,215.1h-.7v26.2h-4.1V211.4h7.4l10.1,26.3h.8V211.4Z"/><path d="M523,211.4v29.9h-4.2V215.9h-.6l-7.8,24.2H506l-7.9-24.2h-.6v25.4h-4.2V211.4h7.4l7.5,24.4,7.5-24.4Z"/><path d="M533.8,240.2a9,9,0,0,1-3.8-4.9,35.8,35.8,0,0,1,0-17.6,9.1,9.1,0,0,1,3.8-5.1,13.3,13.3,0,0,1,7.1-1.7,12.9,12.9,0,0,1,7,1.7,9.1,9.1,0,0,1,3.8,5.1,26.7,26.7,0,0,1,1.2,8.8,26.3,26.3,0,0,1-1.2,8.8,8.9,8.9,0,0,1-3.7,4.9,16.6,16.6,0,0,1-14.2,0Zm11.8-3.2a6.6,6.6,0,0,0,2.3-3.7,28.9,28.9,0,0,0,.7-6.8,31.9,31.9,0,0,0-.7-6.9,7,7,0,0,0-2.4-3.8,7.8,7.8,0,0,0-4.6-1.2,8.2,8.2,0,0,0-4.7,1.2,6.3,6.3,0,0,0-2.3,3.8,25.6,25.6,0,0,0-.7,6.9,30,30,0,0,0,.6,6.7,7.1,7.1,0,0,0,2.4,3.7,7.8,7.8,0,0,0,4.7,1.2A8.8,8.8,0,0,0,545.6,237Z"/><path d="M558.7,211.4H570c3.3,0,5.7.8,7.4,2.3s2.4,3.9,2.4,7-1.7,7.3-5.2,8.7l5.4,11.9h-4.6l-4.8-11h-7.7v11h-4.2ZM570,226.7a5.3,5.3,0,0,0,4.1-1.5,6,6,0,0,0,1.5-4.4,5.8,5.8,0,0,0-1.5-4.3A5.3,5.3,0,0,0,570,215h-7.1v11.7Z"/><path d="M589.7,215.1v9.3h11.8V228H589.7v9.7h14.4v3.6H585.6V211.4h18.5v3.7Z"/></svg>