<svg xmlns="http://www.w3.org/2000/svg" viewBox="0 0 510.6 207.3"><defs><style>.a{opacity:0.2;}.b{fill:#eab611;}.c,.d,.e{fill:none;stroke:#fff;stroke-miterlimit:10;}.c{stroke-width:0.79px;}.d{stroke-width:0.8px;}.e{stroke-width:0.79px;}</style></defs><g class="a"><path class="b" d="M240.7,74.3a26.8,26.8,0,0,0-7.4-10.6,36.5,36.5,0,0,0-12.8-7.1A59.1,59.1,0,0,0,202,54.1H165.9v59h66.4a2.7,2.7,0,0,0,.8-.7,26.7,26.7,0,0,0,7.5-10.9,37.5,37.5,0,0,0,2.5-14A35.2,35.2,0,0,0,240.7,74.3ZM215.3,99.8c-2.7,3-7.2,4.4-13.3,4.4H189.6V71.8H202a24.6,24.6,0,0,1,7.7,1.1,15.8,15.8,0,0,1,5.4,3.2,12.6,12.6,0,0,1,3.2,5,18.3,18.3,0,0,1,1.1,6.4C219.4,92.8,218,96.9,215.3,99.8Z"/><path class="b" d="M457.3,84.7a46.8,46.8,0,0,0-10.7-16.1,50.4,50.4,0,0,0-16.7-10.7,60.3,60.3,0,0,0-21.7-3.8H368.6v59h23.8V72.3h15.8a28.7,28.7,0,0,1,12.1,2.3,23.7,23.7,0,0,1,9,6.5A27.8,27.8,0,0,1,435,91.4a44.9,44.9,0,0,1,1.9,13.7,51,51,0,0,1-.6,8h24.3a52.9,52.9,0,0,0,.5-8A52.2,52.2,0,0,0,457.3,84.7Z"/><path class="b" d="M307.2,54.4a50.9,50.9,0,0,0-50.9,50.9,50.3,50.3,0,0,0,.6,7.8h18.5a33.3,33.3,0,0,1-1-7.8,32.8,32.8,0,1,1,65.5,0,33.3,33.3,0,0,1-.9,7.8h18.4a40.4,40.4,0,0,0,.6-7.8A50.8,50.8,0,0,0,307.2,54.4Z"/><path class="b" d="M102.1,54.5a50.8,50.8,0,0,0-50.9,50.8,49.3,49.3,0,0,0,.6,7.8H70.3a33.3,33.3,0,0,1-.9-7.8,32.8,32.8,0,0,1,65.5,0,33.3,33.3,0,0,1-1,7.8h18.5a49.3,49.3,0,0,0,.6-7.8A50.8,50.8,0,0,0,102.1,54.5Z"/><path class="c" d="M102,28.1a77.6,77.6,0,1,0,77.6,77.6A77.6,77.6,0,0,0,102,28.1Zm0,127.6a50,50,0,1,1,50-50A50,50,0,0,1,102,155.7Z"/><path class="d" d="M202.4,24.9a79.3,79.3,0,1,0,79.4,79.3A79.4,79.4,0,0,0,202.4,24.9Zm0,130.3a51.1,51.1,0,1,1,51.1-51A51,51,0,0,1,202.4,155.2Z"/><path class="e" d="M306.7,28.1a77.9,77.9,0,1,0,77.9,77.8A77.8,77.8,0,0,0,306.7,28.1Zm0,128a50.2,50.2,0,1,1,50.2-50.2A50.1,50.1,0,0,1,306.7,156.1Z"/><path class="d" d="M411,24.9a79.3,79.3,0,1,0,79.3,79.3A79.4,79.4,0,0,0,411,24.9Zm0,130.3a51.1,51.1,0,1,1,51-51A51,51,0,0,1,411,155.2Z"/></g></svg>