<svg xmlns="http://www.w3.org/2000/svg" viewBox="0 0 483.7 178.6"><defs><style>.a{fill:#010101;}.b{fill:#0a0d0d;}.c{fill:#61a7ba;}.d{fill:#3f90b7;}.e{fill:#c23d5d;}.f{fill:#7bbcba;}.g{fill:#b9d99e;}.h{fill:#f2f3f3;}.i{fill:#f3ad72;}.j{fill:#f7f8f8;}.k{fill:#eff0f0;}.l{fill:#a6a5a5;}.m{fill:#060909;}</style></defs><path class="a" d="M478.1,153.4v1.1c-.9.2-.8,1-1,1.6-3.2,9.2-10.8,14.7-20.5,14.7H27.3C15,170.8,6,161.6,6,149.3Q5.9,93.5,6,37.7c0-11.4,7.6-19.9,18.9-21.2h434c9.1,1.1,15.2,6,18.3,14.6.2.6-.1,1.6.9,1.9v1.7c-1,.8-.6,1.9-.6,2.9V150.8C477.5,151.7,477.2,152.7,478.1,153.4ZM47.2,49.3c-1.4-1.1-2.8-2.5-4.7-1.1s-1.2,1.4-1.2,2.4c.1,13.3.1,26.7.1,40v22.7c0,11.1-.1,22.3-.1,33.5a2.5,2.5,0,0,0,.9,2.3c1.5.9,2.6-.1,3.8-.8l22.4-12.9,39.8-23.1c6.8-3.9,13.7-7.7,20.5-11.7,2.4-1.4,2.3-3.2-.2-4.6L107.7,84l-8-4.7q-8.5-4.6-17.1-9.6C76.1,66,69.6,62,62.9,58.4,57.9,55.1,52.5,52.2,47.2,49.3ZM185.5,83.9c3.3-.3,4.3-2.6,6.1-3.9s1.5-2-.3-2.9c-8.2-4.3-16.8-5.4-25.7-2.6-10.9,3.4-17.2,13.3-16.3,24.8s8.5,18.9,19.9,20.5c7.2,1,14.3-.6,21.3-2.2,2.1-.5,2.8-1.2,2.8-3.5s-1.2-7.4,1.9-10.6c-11.7-.9-13.1-.7-17.4,2.5h2.1c6.8-.2,6.6-.2,6.9,6.4.1,3-1.1,4.3-3.8,4.6l-1.6.3c-15.1,1.4-26.4-9.7-25.3-25.1.5-7,3.8-12.4,10.4-15.2s12.8-1.9,18.6,2.5C186.6,80.6,187.6,81.8,185.5,83.9ZM281.1,117c-5,.3-9.4.9-13.1,3.7s-5,10.3.1,13.7,18,3,23.3-2.1,4.5-10.4,0-14.7l-4.1-3.5c-2.3-1.8-2.4-3.5-.2-5.6l1.9-1.7c4.6-4.1,4.9-9.8.9-14.5-.4-.5-1.2-.7-.9-1.6a7,7,0,0,0,6.4-2.3c-5.1,0-10-.2-14.7,0s-8.5,1.9-11.2,5.7a9.9,9.9,0,0,0-1,10.7c1.8,3.7,5,5.4,9.1,5.6.7.1,2.2-.8,1.9,1A7.7,7.7,0,0,0,281.1,117Zm82.8-2.3c8.5,7.7,19.3,4.3,21.6-6.4a23.5,23.5,0,0,0-.2-11.5c-1.7-6.9-6.9-10.4-13.9-9.5a12,12,0,0,0-7.4,4.1,1.5,1.5,0,0,1-.7-1.6c.2-2.1-1.2-2-2.7-2s-1.4,1.3-1.4,2.3v39.5c0,1.9.4,2.4,2.3,2.4s2.5-.3,2.4-2.3C363.8,124.9,363.9,120,363.9,114.7Zm65.4-26.8,11,27.7a9,9,0,0,1-8.6,12.3c-1,0-2.3-.7-2.3,1.4s.5,2.3,2.1,2.5c5.5.8,9.5-1.2,12-6.5s3.3-8.1,4.8-12.3c3.2-8.3,6.3-16.6,9.5-25-4.9-.5-4.9-.5-6.4,3.7l-7.7,21.6c-2.4-7.7-5.3-14.7-8-21.8C434.2,87.6,434.2,87.6,429.3,87.9Zm-181.4,30c9.1,0,16.2-6.6,16.3-15.2a15,15,0,0,0-15.1-15.3c-9.3-.1-16.6,6.6-16.6,15.3S238.9,117.8,247.9,117.9Zm174.3-4c.2,1.4.5,2.1.5,2.8s1.4,1.6,2.7,1.6,1.2-1.1,1.2-1.9c0-6.7.1-13.4,0-20.1-.1-5.2-2.6-8-7.7-8.8A22.1,22.1,0,0,0,407,89.1c-1.6.7-1.3,1.5-.8,2.6s.9,1.9,2.4,1.2a15.4,15.4,0,0,1,7.6-1.7,5.8,5.8,0,0,1,3.9,1.4,6.5,6.5,0,0,1,1.8,6.5c-.5,1.8-2.8.9-4.2,1-4,.2-7.9.4-11.5,2.4s-4.4,5.4-3.9,9.2a7.5,7.5,0,0,0,6.3,6.7C413.8,119.6,418.3,118.6,422.2,113.9Zm-208.7,4c9.1,0,16.1-6.6,16.2-15.2a14.8,14.8,0,0,0-15.1-15.3c-9.2-.1-16.5,6.6-16.6,15.3S204.6,117.9,213.5,117.9Zm122-4a6.5,6.5,0,0,0-1.4,0c-9.2,2.9-15.2-3.9-16.8-10.3-.2-.8-.8-1.7.7-1.7,6.3-.2,11.5-3.9,17.3-5.8,1.2-.4,1.3-1,.8-2.1a10.4,10.4,0,0,0-7.2-6.2c-10.5-2.6-19.7,6.6-17.6,17.7s12.6,15.8,21.6,10.9C333.9,115.9,335.1,115.4,335.5,113.9ZM295.2,74c4.2.1,4.2.1,4.2,3.9v32.8c0,2,.2,4.1-1.5,6.2,4.6-.6,8.9.8,13.5-1.3-5.7-1.5-5.7-1.5-5.7-7.1V78.3c0-2.5-.1-4.9,2.3-6.6C303.6,71.8,299.2,70.5,295.2,74Zm96.9,22.7c0,6.5.1,13-.1,19.5,0,2.1.9,2.1,2.5,2.2s2.2-.4,2.2-2.2c-.1-13-.1-25.9,0-38.9,0-1.9-.5-2.4-2.3-2.4s-2.4.5-2.4,2.4C392.1,83.8,392.1,90.2,392.1,96.7ZM166.4,51.9l5.3,8a2,2,0,0,0,2.2.8c1.2-.1.8-1.1.8-1.7V49.4c0-.8.3-1.7-1.1-1.7s-1.5.6-1.5,1.7,0,3.6,0,5.5a26.2,26.2,0,0,1-4.6-6.2c-.7-1.2-1.6-1.1-2.6-1s-.8,1.3-.8,2c-.1,3.2,0,6.4,0,9.6,0,.7-.1,1.4,1,1.5s1.4-.6,1.3-1.6Zm132.2,2.2a6.4,6.4,0,0,0-6.1-6.7c-3.7-.1-6.6,2.9-6.7,6.9s2.5,6.8,6.2,6.8S298.5,58.1,298.6,54.1Zm-82,0a6.4,6.4,0,0,0-6.2-6.7c-3.7,0-6.5,2.9-6.6,6.9s2.7,6.9,6.3,6.8A6.7,6.7,0,0,0,216.6,54.1ZM303.7,52c2.1,3.1,3.7,5.4,5.2,7.8a2,2,0,0,0,2.2.9c1.2-.1.7-1.1.8-1.7V49.4c0-.8.2-1.7-1.2-1.7s-1.3.9-1.2,1.8v6.7c-1.9-2.9-3.4-5.1-4.7-7.4s-1.6-1.1-2.6-1.1-.9,1.2-.9,1.9v9c0,1-.5,2.2,1.3,2.1s1.1-1.4,1.1-2.2S303.7,54.8,303.7,52ZM178.2,54.1h0c0,1.7-.1,3.4,0,5.1s-.3,1.2.6,1.6a7.5,7.5,0,0,0,10.2-8c-.4-3.9-3.2-5.5-9.1-5.1-3.7.3-.9,3.2-1.7,4.7A4.9,4.9,0,0,0,178.2,54.1Zm47.5.2h0V56c-.1,4.9,1.3,5.9,6.1,4.6s6.3-7.6,3.3-11c-1.5-1.6-6.8-3-8.7-1.8s-.4,3.2-.7,4.8A9.6,9.6,0,0,0,225.7,54.3Zm-23.4,6.1a26.5,26.5,0,0,0-2.3-4.8c-.6-1-1-1.3.1-2.4s1.5-3.1-.1-4.7-6.8-1.2-7.7-.8-.5.7-.5,1.2V59.6c0,1.2.7,1.1,1.5,1.1s1.4-.1,1.3-1.2a12.1,12.1,0,0,1,0-1.9c.1-.7-.5-1.7.6-1.9a1.9,1.9,0,0,1,2.4,1,7.5,7.5,0,0,1,1,2C199,60.8,200.3,61.2,202.3,60.4Zm53.3,0-3.9-11.6c-.4-1.3-1.3-1.1-2.2-1.1s-1.8-.2-2.3,1.1c-1.3,3.9-2.8,7.7-4.3,11.6,2.1.8,3.4.3,3.7-1.9s1.6-1.4,2.8-1.4,2.3-.2,2.4,1.5S253.5,61.1,255.6,60.4Zm-93.6.1c-1.4-4-2.8-7.8-4-11.7-.3-1-.8-1.2-1.6-1.1s-2.2-.6-2.7.8l-4.4,12c2.1.6,3.3.3,3.5-1.8s1.4-1.7,2.6-1.6,2.6-.4,2.8,1.5S159.9,61,162,60.5Zm107.7-6.3h-.1c0,1.4-.1,2.8,0,4.2s-.7,2.3,1.3,2.4,1.5-1.4,1.4-2.3.2-2.9,2.3-2.9a5.1,5.1,0,0,0,2.4-.7c2.4-1.4,2.9-4.8.9-6.2s-5.2-1.4-7.6-.8-.3,2.8-.6,4.3A13.3,13.3,0,0,0,269.7,54.2Zm-11.9,0h-.1v4.2c.1,1-.6,2.3,1.4,2.4s1.4-1.5,1.3-2.4.3-2.8,2.3-2.8a5.1,5.1,0,0,0,2.4-.7c2.6-1.6,2.9-5.2.4-6.5a9.5,9.5,0,0,0-7.4-.4c-1.1.4-.2,2.9-.3,4.5Zm-35.7.1h0c0-1.6-.1-3.3,0-5s0-1.6-1.2-1.6-1.6.3-1.6,1.6c.1,3.3.1,6.6,0,9.8-.1,1.3.4,1.6,1.6,1.6s1.3-.6,1.2-1.6S222.1,55.9,222.1,54.3ZM346.6,87.9c-1.4,0-1.2,1.5-2.3,1.8s-.2-2.1-1.7-2.4a12.3,12.3,0,0,0-.2,4.7,3.5,3.5,0,0,1,4.2-.3Zm-6.5,4.5c1-1.8-.3-3.8,1.8-5.1H338C340.4,88.6,339,90.6,340.1,92.4Z"/><path class="b" d="M478.1,153.4c-.9-.7-.6-1.7-.6-2.6V37.6c0-1-.4-2.1.6-2.9Z"/><path class="c" d="M41.4,113.3V90.6H73.5c3.9,0,7.9.4,11.7-.7a48.3,48.3,0,0,1,8.4,8.5c-5.1,5.2-10.1,10.5-15.5,15.3Z"/><path class="d" d="M85.2,90c-3.8,1.1-7.8.7-11.7.7H41.4c0-13.3,0-26.7-.1-40,0-1,.1-1.9,1.2-2.4s2.1,1.8,3.4,2.3A197.5,197.5,0,0,0,61.8,66.3c3.6,3.7,6.9,7.6,10.8,11S80.9,85.8,85.2,90Z"/><path class="e" d="M78.1,113.8c5.4-4.8,10.4-10.1,15.5-15.3h.8c4.3,4.9,9.1,9.3,13.8,13.8L68.4,135.4,46,148.3c-1.2.7-2.3,1.7-3.9.8a3.1,3.1,0,0,0,1.9-1.2l9.6-9.4c2.3-2.3,4.3-4.8,6.6-6.9C66.5,126,72.3,119.9,78.1,113.8Z"/><path class="f" d="M78.1,113.8c-5.8,6.1-11.6,12.2-17.9,17.8-2.3,2.1-4.3,4.6-6.6,6.9L44,147.9a3.1,3.1,0,0,1-1.9,1.2,2.7,2.7,0,0,1-.8-2.3c0-11.2.1-22.4.1-33.5Z"/><path class="g" d="M94.4,98.5h-.8A48.3,48.3,0,0,0,85.2,90c-4.3-4.2-8.1-8.8-12.6-12.7s-7.2-7.3-10.8-11c1.2-2.6-.3-5.5,1.1-7.9C69.6,62,76.1,66,82.6,69.7S94,76.2,99.7,79.3l8,4.7c-1.7,2.8-4.4,4.7-6.5,7.1S96,95.4,94.4,98.5Z"/><path class="h" d="M185.5,83.9c2.1-2.1,1.1-3.3-.4-4.4-5.8-4.4-12-5.4-18.6-2.5s-9.9,8.2-10.4,15.2c-1.1,15.4,10.2,26.5,25.3,25.1l1.6-.3c2.7-.3,3.9-1.6,3.8-4.6-.3-6.6-.1-6.6-6.9-6.4h-2.1c4.3-3.2,5.7-3.4,17.4-2.5-3.1,3.2-1.9,7.1-1.9,10.6s-.7,3-2.8,3.5c-7,1.6-14.1,3.2-21.3,2.2-11.4-1.6-19-9.6-19.9-20.5s5.4-21.4,16.3-24.8c8.9-2.8,17.5-1.7,25.7,2.6,1.8.9,1.9,1.7.3,2.9S188.8,83.6,185.5,83.9Z"/><path class="h" d="M281.1,117a7.7,7.7,0,0,1-1.6-5.6c.3-1.8-1.2-.9-1.9-1-4.1-.2-7.3-1.9-9.1-5.6a9.9,9.9,0,0,1,1-10.7c2.7-3.8,6.7-5.5,11.2-5.7s9.6,0,14.7,0a7,7,0,0,1-6.4,2.3c-.3.9.5,1.1.9,1.6,4,4.7,3.7,10.4-.9,14.5l-1.9,1.7c-2.2,2.1-2.1,3.8.2,5.6l4.1,3.5c4.5,4.3,4.5,10.3,0,14.7s-17.1,6.2-23.3,2.1-5.2-9.9-.1-13.7S276.1,117.3,281.1,117Zm-.3,17.1a12.2,12.2,0,0,0,5-.8c5-1.8,6.1-7,2.3-10.7s-9.1-4.9-14.5-1.9-4.9,7.7-1,10.9C275,133.5,277.9,133.9,280.8,134.1Zm-7.6-35.7a12.5,12.5,0,0,0,3.2,8,5.7,5.7,0,0,0,6.6,1.7c2.6-.9,3.8-2.8,3.9-5.6a15.8,15.8,0,0,0-2.4-8.5c-1.8-2.9-4.5-4-7.2-3.3S273.2,93.8,273.2,98.4Z"/><path class="i" d="M94.4,98.5c1.6-3.1,4.6-4.9,6.8-7.4s4.8-4.3,6.5-7.1l20.8,12c2.5,1.4,2.6,3.2.2,4.6-6.8,4-13.7,7.8-20.5,11.7C103.5,107.8,98.7,103.4,94.4,98.5Z"/><path class="j" d="M363.9,114.7c0,5.3-.1,10.2,0,15,.1,2-.7,2.2-2.4,2.3s-2.3-.5-2.3-2.4V90.1c0-1-.6-2.4,1.4-2.3s2.9-.1,2.7,2a1.5,1.5,0,0,0,.7,1.6,12,12,0,0,1,7.4-4.1c7-.9,12.2,2.6,13.9,9.5a23.5,23.5,0,0,1,.2,11.5C383.2,119,372.4,122.4,363.9,114.7Zm0-11.9a18.6,18.6,0,0,0,.5,5.7c.9,3.9,3.3,5.9,7.3,6.4a7.5,7.5,0,0,0,8.2-5,18.2,18.2,0,0,0,.4-12.8c-1.3-4.2-4.1-6.1-8.4-5.9s-6.7,2.3-7.6,6.9A14.5,14.5,0,0,0,363.9,102.8Z"/><path class="h" d="M429.3,87.9c4.9-.3,4.9-.3,6.4,3.6,2.7,7.1,5.6,14.1,8,21.8l7.7-21.6c1.5-4.2,1.5-4.2,6.4-3.7-3.2,8.4-6.3,16.7-9.5,25-1.5,4.2-3,8.4-4.8,12.3s-6.5,7.3-12,6.5c-1.6-.2-2.1-.9-2.1-2.5s1.3-1.4,2.3-1.4a9,9,0,0,0,8.6-12.3Z"/><path class="h" d="M247.9,117.9c-9-.1-15.5-6.5-15.4-15.2s7.3-15.4,16.6-15.3a15,15,0,0,1,15.1,15.3C264.1,111.3,257,117.9,247.9,117.9Zm-9.2-18.5c.2,5.2,1.3,9.9,4.7,13.7a7.6,7.6,0,0,0,7.9,2.5,7.4,7.4,0,0,0,6-6.1,20.9,20.9,0,0,0-3.5-16.6,7.6,7.6,0,0,0-8.2-3.2,8,8,0,0,0-6.6,6.5A18.2,18.2,0,0,0,238.7,99.4Z"/><path class="h" d="M422.2,113.9c-3.9,4.7-8.4,5.7-13.6,4.5a7.5,7.5,0,0,1-6.3-6.7c-.5-3.8.3-7.1,3.9-9.2s7.5-2.2,11.5-2.4c1.4-.1,3.7.8,4.2-1a6.5,6.5,0,0,0-1.8-6.5,5.8,5.8,0,0,0-3.9-1.4,15.4,15.4,0,0,0-7.6,1.7c-1.5.7-1.9,0-2.4-1.2s-.8-1.9.8-2.6a22.1,22.1,0,0,1,11.9-1.6c5.1.8,7.6,3.6,7.7,8.8.1,6.7,0,13.4,0,20.1,0,.8.4,2-1.2,1.9s-2.5.2-2.7-1.6S422.4,115.3,422.2,113.9Zm-9.3,1c5.9,0,9.6-4.1,9.1-10-.1-.8-.1-1.6-1.2-1.5-3.1.2-6.4,0-9.5,1s-4.6,3.3-4.2,6.4S409.5,114.9,412.9,114.9Z"/><path class="h" d="M213.5,117.9c-8.9,0-15.5-6.5-15.5-15.2s7.4-15.4,16.6-15.3a14.8,14.8,0,0,1,15.1,15.3C229.6,111.3,222.6,117.9,213.5,117.9Zm-9.2-18.4c.2,4.7,1.2,9.3,4.3,13.1s4.6,3.8,7.9,3.1a7.8,7.8,0,0,0,6.4-6.1A20,20,0,0,0,219.4,93a8.1,8.1,0,0,0-13.9.7A10.5,10.5,0,0,0,204.3,99.5Z"/><path class="k" d="M335.5,113.9c-.4,1.5-1.6,2-2.6,2.5-9,4.9-19.6-.5-21.6-10.9s7.1-20.3,17.6-17.7a10.4,10.4,0,0,1,7.2,6.2c.5,1.1.4,1.7-.8,2.1-5.8,1.9-11,5.6-17.3,5.8-1.5,0-.9.9-.7,1.7,1.6,6.4,7.6,13.2,16.8,10.3A6.5,6.5,0,0,1,335.5,113.9Zm-19-15.3c0,3,.1,3.1,3.2,1.8s4.8-2,7.2-3.2,3-.5,3-2.4a4.7,4.7,0,0,0-2.4-3.9,6,6,0,0,0-6.9-.4C317.5,92.2,316.7,95.1,316.5,98.6Z"/><path class="h" d="M295.2,74c4-3.5,8.4-2.2,12.8-2.3-2.4,1.7-2.3,4.1-2.3,6.6v30.2c0,5.6,0,5.6,5.7,7.1-4.6,2.1-8.9.7-13.5,1.3,1.7-2.1,1.5-4.2,1.5-6.2V77.9C299.4,74.1,299.4,74.1,295.2,74Z"/><path class="j" d="M392.1,96.7c0-6.5,0-12.9-.1-19.4,0-1.9.5-2.4,2.4-2.4s2.3.5,2.3,2.4c-.1,13-.1,25.9,0,38.9,0,1.8-.5,2.2-2.2,2.2s-2.5-.1-2.5-2.2C392.2,109.7,392.1,103.2,392.1,96.7Z"/><path class="f" d="M62.9,58.4c-1.4,2.4.1,5.3-1.1,7.9A197.5,197.5,0,0,1,45.9,50.5c0-.9.6-1.1,1.3-1.2C52.5,52.2,57.9,55.1,62.9,58.4Z"/><path class="k" d="M166.4,51.9v7.3c.1,1,0,1.6-1.3,1.6s-1-.8-1-1.5c0-3.2-.1-6.4,0-9.6,0-.7-.6-1.9.8-2s1.9-.2,2.6,1a26.2,26.2,0,0,0,4.6,6.2c0-1.9.1-3.7,0-5.5s.1-1.8,1.5-1.7,1.1.9,1.1,1.7V59c0,.6.4,1.6-.8,1.7a2,2,0,0,1-2.2-.8Z"/><path class="k" d="M298.6,54.1c-.1,4-3,7.1-6.6,7s-6.3-3-6.2-6.8,3-7,6.7-6.9A6.4,6.4,0,0,1,298.6,54.1Zm-2.9.1c-.1-2.6-1.6-4.5-3.7-4.5s-3.4,2-3.4,4.5,1.6,4.6,3.6,4.6S295.7,56.8,295.7,54.2Z"/><path class="k" d="M216.6,54.1a6.7,6.7,0,0,1-6.5,7c-3.6.1-6.4-2.9-6.3-6.8s2.9-6.9,6.6-6.9A6.4,6.4,0,0,1,216.6,54.1Zm-2.8.1c-.1-2.6-1.7-4.5-3.8-4.5s-3.3,2-3.3,4.5,1.6,4.6,3.5,4.6S213.8,56.6,213.8,54.2Z"/><path class="h" d="M303.7,52c0,2.8.1,4.6,0,6.5s.8,2.2-1.1,2.2-1.3-1.1-1.3-2.1v-9c0-.7-.5-1.8.9-1.9s1.9-.2,2.6,1.1,2.8,4.5,4.7,7.4V49.5c-.1-.9-.3-1.9,1.2-1.8s1.2.9,1.2,1.7V59c-.1.6.4,1.6-.8,1.7a2,2,0,0,1-2.2-.9C307.4,57.4,305.8,55.1,303.7,52Zm.1-.1-.2-.5-.2.4c-.1.1.1.3.2.4Z"/><path class="k" d="M178.2,54.1a4.9,4.9,0,0,1,0-1.7c.8-1.5-2-4.4,1.7-4.7,5.9-.4,8.7,1.2,9.1,5.1a7.5,7.5,0,0,1-10.2,8c-.9-.4-.6-1-.6-1.6s0-3.4,0-5.1Zm8-.5a7,7,0,0,0-.3-1.4,3.6,3.6,0,0,0-4.3-2.3c-1.9.4-.6,2-.8,3a12.9,12.9,0,0,0,.1,3.4c.1,2.4,1.5,3.1,3.6,1.8S186.3,55.7,186.2,53.6Z"/><path class="h" d="M225.7,54.3a9.6,9.6,0,0,1,0-1.7c.3-1.6-1.1-3.7.7-4.8s7.2.2,8.7,1.8c3,3.4,1.1,9.8-3.3,11s-6.2.3-6.1-4.6V54.3Zm2.5.1a18.2,18.2,0,0,0,.1,2c.1,2.3,1.3,3,3.4,1.8s2.7-5.8.4-7.6a3.5,3.5,0,0,0-3.4-.7c-1.2.5-.3,1.7-.5,2.5A12.9,12.9,0,0,0,228.2,54.4Z"/><path class="k" d="M202.3,60.4c-2,.8-3.3.4-3.7-1.7a7.5,7.5,0,0,0-1-2,1.9,1.9,0,0,0-2.4-1c-1.1.2-.5,1.2-.6,1.9a12.1,12.1,0,0,0,0,1.9c.1,1.1-.5,1.3-1.3,1.2s-1.5.1-1.5-1.1V48.9c0-.5,0-.9.5-1.2s7,.1,7.7.8,1.6,3.4.1,4.7-.7,1.4-.1,2.4A26.5,26.5,0,0,1,202.3,60.4Zm-7.7-8.7c.3.6-.7,2.2,1.2,2s2.7-.5,2.7-2.2-1.2-1.7-2.4-1.9S194.4,50.4,194.6,51.7Z"/><path class="k" d="M255.6,60.4c-2.1.7-3.5.6-3.8-1.8s-1.3-1.6-2.4-1.5-2.6-.5-2.8,1.4-1.6,2.7-3.7,1.9c1.5-3.9,3-7.7,4.3-11.6.5-1.3,1.4-1.1,2.3-1.1s1.8-.2,2.2,1.1Zm-7.9-5.3c1-.1,2.6,0,2.7-.3s-.6-2.9-1.1-4.7A15.4,15.4,0,0,0,247.7,55.1Z"/><path class="k" d="M162,60.5c-2.1.5-3.7.6-3.8-1.9s-1.6-1.5-2.8-1.5-2.5-.2-2.6,1.6-1.4,2.4-3.5,1.8l4.4-12c.5-1.4,1.8-.6,2.7-.8s1.3.1,1.6,1.1C159.2,52.7,160.6,56.5,162,60.5Zm-8.2-5.4c1.3-.2,2.8.3,3-.4a6.4,6.4,0,0,0-1.5-4.4Z"/><path class="k" d="M269.7,54.2a13.3,13.3,0,0,1,0-2c.3-1.5-1.1-3.9.6-4.3s5.3-.9,7.6.8,1.5,4.8-.9,6.2a5.1,5.1,0,0,1-2.4.7c-2.1,0-2.5,1.1-2.3,2.9s.7,2.3-1.4,2.3-1.3-1.4-1.3-2.4,0-2.8,0-4.2Zm4.1-4.6c-2.1-.1-1.5,1.4-1.5,2.4s-.2,2.1,1.5,1.9,2.6-.7,2.5-2.4S274.9,49.8,273.8,49.6Z"/><path class="k" d="M257.8,54.2V52.5c.1-1.6-.8-4.1.3-4.5a9.5,9.5,0,0,1,7.4.4c2.5,1.3,2.2,4.9-.4,6.5a5.1,5.1,0,0,1-2.4.7c-2,0-2.5,1-2.3,2.8s.7,2.4-1.3,2.4-1.3-1.4-1.4-2.4V54.2Zm2.6-2.2c.3.4-.8,2.1,1.3,1.9s2.7-.5,2.7-2.3-1.3-1.8-2.5-2S260.1,50.4,260.4,52Z"/><path class="j" d="M222.1,54.3c0,1.6-.1,3.2,0,4.8s0,1.6-1.2,1.6-1.7-.3-1.6-1.6c.1-3.2.1-6.5,0-9.8,0-1.3.3-1.6,1.6-1.6s1.2.6,1.2,1.6,0,3.4,0,5Z"/><path class="l" d="M346.6,87.9v3.8a3.5,3.5,0,0,0-4.2.3,12.3,12.3,0,0,1,.2-4.7c1.5.3,1.2,1.7,1.7,2.4S345.2,87.9,346.6,87.9Z"/><path class="l" d="M340.1,92.4c-1.1-1.8.3-3.8-2.1-5.1h3.9C339.8,88.6,341.1,90.6,340.1,92.4Z"/><path class="c" d="M47.2,49.3c-.7.1-1.3.3-1.3,1.2s-1.8-2.2-3.4-2.3C44.4,46.8,45.8,48.2,47.2,49.3Z"/><path class="a" d="M280.8,134.1c-2.9-.2-5.8-.6-8.2-2.5-3.9-3.2-3.5-8.5,1-10.9s10.3-2.3,14.5,1.9,2.7,8.9-2.3,10.7A12.2,12.2,0,0,1,280.8,134.1Z"/><path class="m" d="M273.2,98.4c0-4.6,1.4-6.9,4.1-7.7s5.4.4,7.2,3.3a15.8,15.8,0,0,1,2.4,8.5c-.1,2.8-1.3,4.7-3.9,5.6a5.7,5.7,0,0,1-6.6-1.7A12.5,12.5,0,0,1,273.2,98.4Z"/><path class="a" d="M363.9,102.8a14.5,14.5,0,0,1,.4-4.7c.9-4.6,3.2-6.6,7.6-6.9s7.1,1.7,8.4,5.9a18.2,18.2,0,0,1-.4,12.8,7.5,7.5,0,0,1-8.2,5c-4-.5-6.4-2.5-7.3-6.4A18.6,18.6,0,0,1,363.9,102.8Z"/><path class="a" d="M238.7,99.4a18.2,18.2,0,0,1,.3-3.2,8,8,0,0,1,6.6-6.5,7.6,7.6,0,0,1,8.2,3.2,20.9,20.9,0,0,1,3.5,16.6,7.4,7.4,0,0,1-6,6.1,7.6,7.6,0,0,1-7.9-2.5C240,109.3,238.9,104.6,238.7,99.4Z"/><path class="m" d="M412.9,114.9c-3.4,0-5.3-1.4-5.8-4.1s1.1-5.4,4.2-6.4,6.4-.8,9.5-1c1.1-.1,1.1.7,1.2,1.5C422.5,110.8,418.8,114.9,412.9,114.9Z"/><path class="a" d="M204.3,99.5a10.5,10.5,0,0,1,1.2-5.8,8.1,8.1,0,0,1,13.9-.7,20,20,0,0,1,3.5,16.6,7.8,7.8,0,0,1-6.4,6.1c-3.3.7-5.9-.6-7.9-3.1S204.5,104.2,204.3,99.5Z"/><path class="m" d="M316.5,98.6c.2-3.5,1-6.4,4.1-8.1a6,6,0,0,1,6.9.4,4.7,4.7,0,0,1,2.4,3.9c0,1.9-1.8,1.9-3,2.4s-4.8,2.1-7.2,3.2S316.5,101.6,316.5,98.6Z"/><path class="b" d="M295.7,54.2c0,2.6-1.6,4.7-3.5,4.6s-3.6-2.1-3.6-4.6,1.5-4.4,3.4-4.5S295.6,51.6,295.7,54.2Z"/><path class="b" d="M213.8,54.2c0,2.4-1.7,4.6-3.6,4.6s-3.5-2.1-3.5-4.6,1.4-4.4,3.3-4.5S213.7,51.6,213.8,54.2Z"/><path class="l" d="M303.8,51.9l-.2.3c-.1-.1-.3-.3-.2-.4l.2-.4Z"/><path class="m" d="M186.2,53.6c.1,2.1-.4,3.5-1.7,4.5s-3.5.6-3.6-1.8a12.9,12.9,0,0,1-.1-3.4c.2-1-1.1-2.6.8-3a3.6,3.6,0,0,1,4.3,2.3A7,7,0,0,1,186.2,53.6Z"/><path class="b" d="M228.2,54.4a12.9,12.9,0,0,1,0-2c.2-.8-.7-2,.5-2.5a3.5,3.5,0,0,1,3.4.7c2.3,1.8,2.1,6.2-.4,7.6s-3.3.5-3.4-1.8A18.2,18.2,0,0,1,228.2,54.4Z"/><path class="b" d="M194.6,51.7c-.2-1.3,0-2.3,1.5-2.1s2.4.4,2.4,1.9-1.3,2.1-2.7,2.2S194.9,52.3,194.6,51.7Z"/><path class="b" d="M247.7,55.1a15.4,15.4,0,0,1,1.6-5c.5,1.8,1.5,3.1,1.1,4.7S248.7,55,247.7,55.1Z"/><path class="b" d="M153.8,55.1l1.5-4.8a6.4,6.4,0,0,1,1.5,4.4C156.6,55.4,155.1,54.9,153.8,55.1Z"/><path class="b" d="M273.8,49.6c1.1.2,2.4.3,2.5,1.9s-1.1,2.2-2.5,2.4-1.6-.8-1.5-1.9S271.7,49.5,273.8,49.6Z"/><path class="b" d="M260.4,52c-.3-1.6,0-2.6,1.5-2.4s2.5.4,2.5,2-1.3,2.2-2.7,2.3S260.7,52.4,260.4,52Z"/></svg>