<svg xmlns="http://www.w3.org/2000/svg" viewBox="0 0 512 466.7"><defs><style>.a{fill:#fff;}.b{fill:#6950a0;}</style></defs><path class="a" d="M42.6,234.6c0-39.8-.1-79.6,0-119.4a211,211,0,0,1,1.6-28.6c2.1-13.5,8.3-25,16.7-35.5a78.9,78.9,0,0,1,44.3-27.5c2-.3,4.1-.1,6-.4s4.7-.5,7.1-1a43.4,43.4,0,0,1,10.2-.7H291.6c31.5,0,63.2-.3,94.7.3s57.3,17,72.2,46.7a73.1,73.1,0,0,1,7.4,31.8c.2,35.2,0,70.3,0,105.4V361.9c0,16-3.4,31.2-12.1,44.9-13.6,20.9-32.6,33.3-57.2,37.2a109.4,109.4,0,0,1-14,.7h-257a80.1,80.1,0,0,1-39.2-9.3c-24.7-13.6-39.8-34.3-43.3-62.7a152.9,152.9,0,0,1-.5-17.9Zm47.7,82,.9.9A219.7,219.7,0,0,0,169,344.4a208.8,208.8,0,0,0,44.7,1.2c5.5-.5,10.9-1.2,16.3-2.1a183.8,183.8,0,0,0,82.7-36.8c30.2-23.8,50.8-54.2,62.8-90.7a169.8,169.8,0,0,0,8-41.8,104.9,104.9,0,0,0-.3-22.4,5.2,5.2,0,0,1,2.3-5.1,153,153,0,0,0,26.1-24.1,61.9,61.9,0,0,0,7.3-10.3c-11.2,4.9-22,9.2-33.7,10.8v-.5l1.9-1.7c6-5.1,11.8-10.3,16.1-17.1a37.4,37.4,0,0,0,6-16.5c0-.7.3-1.3-.3-1.7s-.9.4-1.4.7-5.5,3.6-8.3,5.1A96.7,96.7,0,0,1,368,103.2a3.6,3.6,0,0,1-3.8-.9C347.6,85.7,327.4,79,304.5,82.8c-27.8,4.6-44.4,22.6-52.4,49.2-2.7,9.5-2,19.3-.6,29,.9,5.7.8,5.7-4.8,5.1A184.8,184.8,0,0,1,196.8,153c-28.3-11.5-53.5-27.8-74.4-50.4l-7.4-8a130.7,130.7,0,0,0-4.1,13.9,120.1,120.1,0,0,0-3.9,22.2,51.8,51.8,0,0,0,2,17.1,56,56,0,0,0,4.9,12.5A84.1,84.1,0,0,0,125,174.4c3.2,3.2,6.2,6.6,8.8,9.5a79.3,79.3,0,0,1-9.6-1.4,55.2,55.2,0,0,1-16.6-5.2l-1-.4c-1.3-.4-1.9-.2-1.6,1.2l1,5.5a63.7,63.7,0,0,0,10.6,29.1c10.1,15,24.6,24.4,41.9,29,.9.3,1.9.2,2.6,1.1-11.5,2.9-22.9,2.4-34.7,1.1,12.4,26.9,33.5,41.3,62.1,46.2C159.4,313.2,126.7,320.6,90.3,316.6Z"/><path class="b" d="M90.3,316.6c36.4,4,69.1-3.4,98.2-26.5-28.6-4.9-49.7-19.3-62.1-46.2,11.8,1.3,23.2,1.8,34.7-1.1-.7-.9-1.7-.8-2.6-1.1-17.3-4.6-31.8-14-41.9-29A63.7,63.7,0,0,1,106,183.6l-1-5.5c-.3-1.4.3-1.6,1.6-1.2l1,.4a55.2,55.2,0,0,0,16.6,5.2,79.3,79.3,0,0,0,9.6,1.4c-2.6-2.9-5.6-6.3-8.8-9.5a84.1,84.1,0,0,1-11.1-14.1,56,56,0,0,1-4.9-12.5,51.8,51.8,0,0,1-2-17.1,120.1,120.1,0,0,1,3.9-22.2A130.7,130.7,0,0,1,115,94.6l7.4,8c20.9,22.6,46.1,38.9,74.4,50.4a184.8,184.8,0,0,0,49.9,13.1c5.6.6,5.7.6,4.8-5.1-1.4-9.7-2.1-19.5.6-29,8-26.6,24.6-44.6,52.4-49.2,22.9-3.8,43.1,2.9,59.7,19.5a3.6,3.6,0,0,0,3.8.9,96.7,96.7,0,0,0,31.2-11.8c2.8-1.5,5.5-3.4,8.3-5.1s.6-1.2,1.4-.7.3,1,.3,1.7a37.4,37.4,0,0,1-6,16.5c-4.3,6.8-10.1,12-16.1,17.1l-1.9,1.7v.5c11.7-1.6,22.5-5.9,33.7-10.8a61.9,61.9,0,0,1-7.3,10.3,153,153,0,0,1-26.1,24.1,5.2,5.2,0,0,0-2.3,5.1,104.9,104.9,0,0,1,.3,22.4,169.8,169.8,0,0,1-8,41.8c-12,36.5-32.6,66.9-62.8,90.7A183.8,183.8,0,0,1,230,343.5c-5.4.9-10.8,1.6-16.3,2.1a208.8,208.8,0,0,1-44.7-1.2,219.7,219.7,0,0,1-77.8-26.9Z"/></svg>