<svg xmlns="http://www.w3.org/2000/svg" viewBox="0 0 512 466.7"><defs><style>.a{fill:#6950a0;}.b{fill:#fff;}</style></defs><rect class="a" x="5" y="4.3" width="501.4" height="459.34" rx="81.2"/><path class="b" d="M118,235c0-25.9-.1-51.8,0-77.7a128.1,128.1,0,0,1,1-18.6c1.4-8.8,5.4-16.3,10.9-23.1a50.8,50.8,0,0,1,28.8-17.9c1.3-.2,2.7-.1,3.9-.3s3.1-.3,4.6-.6a30.3,30.3,0,0,1,6.7-.5H280c20.5,0,41.1-.2,61.6.2s37.3,11.1,47,30.4a48,48,0,0,1,4.8,20.7c.1,22.9,0,45.7,0,68.6V317.8c0,10.4-2.2,20.3-7.9,29.2q-13.2,20.4-37.2,24.2a70.4,70.4,0,0,1-9.1.5H172a52.5,52.5,0,0,1-25.5-6.1c-16.1-8.8-25.9-22.3-28.2-40.8a89.4,89.4,0,0,1-.3-11.6Zm31,53.3.6.6a142.5,142.5,0,0,0,50.6,17.5,135,135,0,0,0,29.1.8c3.6-.3,7.1-.8,10.6-1.4a119.1,119.1,0,0,0,53.8-23.9c19.7-15.5,33.1-35.3,40.9-59a114.7,114.7,0,0,0,5.2-27.2,71.2,71.2,0,0,0-.2-14.6,3.3,3.3,0,0,1,1.5-3.3,105.6,105.6,0,0,0,17-15.7,37.9,37.9,0,0,0,4.7-6.7c-7.3,3.2-14.3,6-21.9,7v-.3l1.2-1.1c3.9-3.3,7.7-6.7,10.5-11.1a24.7,24.7,0,0,0,3.9-10.8c0-.4.2-.8-.2-1.1s-.6.3-.9.5-3.6,2.3-5.4,3.3a62.6,62.6,0,0,1-20.3,7.7,2.4,2.4,0,0,1-2.5-.6c-10.8-10.8-23.9-15.2-38.8-12.7-18.1,3-28.9,14.7-34.1,32-1.8,6.2-1.3,12.6-.4,18.9.6,3.7.5,3.7-3.1,3.3a122.7,122.7,0,0,1-32.5-8.5c-18.4-7.5-34.8-18.1-48.4-32.8l-4.8-5.2a76.9,76.9,0,0,0-2.7,9,78.5,78.5,0,0,0-2.5,14.5,31.9,31.9,0,0,0,1.3,11.1,33.4,33.4,0,0,0,3.2,8.1,49.6,49.6,0,0,0,7.2,9.2c2.1,2.1,4,4.3,5.7,6.2a54.5,54.5,0,0,1-6.2-.9,35.9,35.9,0,0,1-10.8-3.4l-.7-.3c-.8-.2-1.2-.1-1,.8l.6,3.6a42.4,42.4,0,0,0,6.9,18.9c6.6,9.8,16,15.9,27.3,18.9.6.2,1.2.1,1.7.7-7.5,1.9-14.9,1.6-22.6.7,8.1,17.5,21.8,26.9,40.4,30.1C194,286.1,172.7,290.9,149,288.3Z"/><path class="a" d="M149,288.3c23.7,2.6,45-2.2,63.9-17.2-18.6-3.2-32.3-12.6-40.4-30.1,7.7.9,15.1,1.2,22.6-.7-.5-.6-1.1-.5-1.7-.7-11.3-3-20.7-9.1-27.3-18.9a42.4,42.4,0,0,1-6.9-18.9l-.6-3.6c-.2-.9.2-1,1-.8l.7.3a35.9,35.9,0,0,0,10.8,3.4,54.5,54.5,0,0,0,6.2.9c-1.7-1.9-3.6-4.1-5.7-6.2a49.6,49.6,0,0,1-7.2-9.2,33.4,33.4,0,0,1-3.2-8.1,31.9,31.9,0,0,1-1.3-11.1,78.5,78.5,0,0,1,2.5-14.5,76.9,76.9,0,0,1,2.7-9l4.8,5.2c13.6,14.7,30,25.3,48.4,32.8a122.7,122.7,0,0,0,32.5,8.5c3.6.4,3.7.4,3.1-3.3-.9-6.3-1.4-12.7.4-18.9,5.2-17.3,16-29,34.1-32,14.9-2.5,28,1.9,38.8,12.7a2.4,2.4,0,0,0,2.5.6,62.6,62.6,0,0,0,20.3-7.7c1.8-1,3.6-2.2,5.4-3.3s.4-.8.9-.5.2.7.2,1.1a24.7,24.7,0,0,1-3.9,10.8c-2.8,4.4-6.6,7.8-10.5,11.1l-1.2,1.1v.3c7.6-1,14.6-3.8,21.9-7a37.9,37.9,0,0,1-4.7,6.7,105.6,105.6,0,0,1-17,15.7,3.3,3.3,0,0,0-1.5,3.3,71.2,71.2,0,0,1,.2,14.6,114.7,114.7,0,0,1-5.2,27.2c-7.8,23.7-21.2,43.5-40.9,59a119.1,119.1,0,0,1-53.8,23.9c-3.5.6-7,1.1-10.6,1.4a135,135,0,0,1-29.1-.8,142.5,142.5,0,0,1-50.6-17.5Z"/></svg>