<svg xmlns="http://www.w3.org/2000/svg" viewBox="0 0 400 400"><defs><style>.a{fill:#6d44bc;}</style></defs><path class="a" d="M93.3,159.2A114.1,114.1,0,0,1,193.9,85.9l28.9-38.3L194.1,9.7C114.2,12.1,46.7,63.8,20.9,135.4l45-15.6Z"/><path class="a" d="M262.3,295.7a114.1,114.1,0,0,1-124.4.1L92,309.8l.9,47.6a190.6,190.6,0,0,0,214.1,0l-45.6-13.8Z"/><path class="a" d="M205.9,85.9a114.1,114.1,0,0,1,100.7,73l45.3,15.7,27.3-39.1A190.6,190.6,0,0,0,206,9.7l28.8,37.9Z"/><path class="a" d="M382.9,146.9l-27.3,39-45.3-15.7A114.5,114.5,0,0,1,272,288.6l-.9,48,45.5,13.8a190.5,190.5,0,0,0,66.3-203.5Z"/><path class="a" d="M128.2,288.8A114.7,114.7,0,0,1,89.6,170.5L62.2,131.2l-45,15.5A190.2,190.2,0,0,0,83.3,350.3l-.9-47.6Z"/></svg>