<svg xmlns="http://www.w3.org/2000/svg" viewBox="0 0 512 512"><defs><style>.a{fill:#6d44bc;}.b{fill:#eab611;}.c{fill:#150200;}</style></defs><circle class="a" cx="256" cy="256" r="246.3"/><circle class="b" cx="256" cy="256" r="223.2"/><rect class="c" x="206.4" y="177.7" width="97.4" height="9.97"/><path class="c" d="M271.8,334.7l-69-74.5a4.9,4.9,0,0,1,.1-7,5,5,0,0,1,3.9-1.4c.3,0,35.4,2.6,52.6-16.3s-10.3-49.2-10.6-49.6l7.7-6.3c1.3,1.5,32,38.7,10.2,62.6-13.6,15-35.4,18.8-49,19.5l61.4,66.2Z"/><rect class="c" x="206.4" y="212.8" width="97.4" height="9.97"/><path class="c" d="M255.1,396.1c-78.7,0-142.8-64.1-142.8-142.8A142.8,142.8,0,1,1,255.1,396.1Zm0-275.7a132.9,132.9,0,0,0,0,265.7c73.2,0,132.9-59.6,132.9-132.8A133.2,133.2,0,0,0,255.1,120.4Z"/></svg>